<?xml version="1.0" encoding="utf-8"?>
<!-- Generator: Adobe Illustrator 19.0.0, SVG Export Plug-In . SVG Version: 6.00 Build 0)  -->
<svg version="1.1" id="layer" xmlns="http://www.w3.org/2000/svg" xmlns:xlink="http://www.w3.org/1999/xlink" x="0px" y="0px"
	 viewBox="-153 -46 652 652" style="enable-background:new -153 -46 652 652;" xml:space="preserve">
<style type="text/css">
	.st0{fill:#222222;}
	.st1{fill:url(#SVGID_1_);}
	.st2{fill:#D81222;}
</style>
<path class="st0" d="M-57.8,317h-9.6v-46.6h9.6V317z M-21.6,284.5c2.3,1.9,3.3,4.9,3.3,9.2V317h-9.2v-21c0-1.9-0.3-3.2-0.7-4.1
	c-0.9-1.7-2.5-2.7-5.1-2.7c-3.1,0-5.1,1.3-6.3,3.9c-0.5,1.3-0.9,3.1-0.9,5.2V317h-8.9v-34.3h8.7v5.1c1.2-1.7,2.3-3.1,3.2-3.9
	c1.9-1.3,4.1-2.1,7.1-2.1C-26.8,281.7-23.9,282.7-21.6,284.5z M-14,289.4v-6.4h4.8v-9.6h8.9v9.6h5.6v6.4h-5.6v18.2
	c0,1.5,0.1,2.3,0.5,2.7s1.5,0.5,3.3,0.5c0.3,0,0.5,0,0.9,0c0.3,0,0.7,0,0.9,0v6.7l-4.3,0.1c-4.3,0.1-7.2-0.5-8.7-2.3
	c-1.1-1.1-1.5-2.7-1.5-4.8v-21.1H-14z M33,283.3c2.4,1.1,4.4,2.8,6,5.1c1.5,2,2.3,4.4,2.8,7.1c0.3,1.6,0.4,3.9,0.3,6.8H17
	c0.1,3.5,1.3,5.9,3.6,7.2c1.3,0.8,3.1,1.3,4.9,1.3c2,0,3.7-0.5,4.9-1.6c0.7-0.5,1.3-1.3,1.9-2.4h9.2c-0.3,2-1.3,4.1-3.3,6.3
	c-3.1,3.3-7.3,5.1-13,5.1c-4.5,0-8.7-1.5-12.1-4.3s-5.2-7.5-5.2-13.8c0-6,1.6-10.5,4.8-13.8c3.2-3.2,7.2-4.8,12.3-4.8
	C27.9,281.6,30.6,282.3,33,283.3z M19.7,291.1c-1.3,1.3-2.1,3.1-2.4,5.3h15.5c-0.1-2.4-0.9-4.1-2.4-5.5c-1.5-1.2-3.2-1.9-5.3-1.9
	C22.6,289.1,20.9,289.8,19.7,291.1z M66.4,281.7c0.1,0,0.4,0,0.8,0v9.3c-0.5,0-1.1-0.1-1.5-0.1s-0.8,0-1.1,0c-3.6,0-6,1.2-7.3,3.5
	c-0.7,1.3-1.1,3.3-1.1,6.1V317h-9.1v-34.4h8.5v6c1.3-2.3,2.5-3.9,3.6-4.7c1.7-1.5,3.9-2.1,6.5-2.1C66.3,281.7,66.4,281.7,66.4,281.7
	z M86,296c1.7-0.3,2.9-0.5,3.6-0.8c1.3-0.5,2-1.3,2-2.5c0-1.5-0.5-2.4-1.5-2.9c-0.9-0.5-2.4-0.8-4.4-0.8c-2.1,0-3.7,0.5-4.5,1.6
	c-0.7,0.8-1.1,1.9-1.3,3.2h-8.7c0.1-3.1,1.1-5.5,2.5-7.5c2.4-3.1,6.5-4.5,12.3-4.5c3.7,0,7.2,0.8,10.1,2.3c2.9,1.5,4.4,4.3,4.4,8.4
	v15.8c0,1.1,0,2.4,0,4c0,1.2,0.3,2,0.5,2.4c0.3,0.4,0.8,0.8,1.3,1.1v1.3h-9.7c-0.3-0.7-0.4-1.3-0.5-2c-0.1-0.7-0.1-1.3-0.3-2.1
	c-1.2,1.3-2.7,2.5-4.3,3.5c-2,1.1-4.1,1.7-6.7,1.7c-3.1,0-5.7-0.9-7.7-2.7c-2-1.7-3.1-4.3-3.1-7.6c0-4.3,1.6-7.3,4.9-9.2
	c1.9-1.1,4.4-1.7,8-2.3L86,296z M91.5,300.3c-0.5,0.4-1.2,0.7-1.7,0.9c-0.5,0.3-1.3,0.4-2.4,0.7l-2,0.4c-1.9,0.4-3.3,0.8-4.1,1.2
	c-1.5,0.8-2.1,2.1-2.1,3.9c0,1.6,0.4,2.7,1.3,3.3c0.8,0.7,1.9,1.1,3.2,1.1c2,0,3.7-0.5,5.5-1.7c1.6-1.2,2.5-3.2,2.5-6.3v-3.5H91.5z
	 M128.9,295c-0.1-1.3-0.5-2.4-1.3-3.5c-1.1-1.3-2.5-2.1-4.7-2.1c-3.1,0-5.1,1.5-6.3,4.5c-0.5,1.6-0.9,3.7-0.9,6.4
	c0,2.5,0.3,4.5,0.9,6.1c1.1,2.8,3.1,4.3,6.1,4.3c2.1,0,3.6-0.5,4.5-1.7c0.9-1.2,1.5-2.7,1.6-4.4h9.2c-0.3,2.8-1.2,5.3-2.9,7.7
	c-2.8,3.9-6.9,5.9-12.6,5.9c-5.6,0-9.6-1.6-12.3-4.9c-2.7-3.3-4-7.5-4-12.8c0-5.9,1.5-10.5,4.3-13.8c2.9-3.3,6.8-4.9,12-4.9
	c4.3,0,7.9,0.9,10.5,2.9c2.7,2,4.4,5.3,4.9,10.3H128.9z M141,289.4v-6.4h4.8v-9.6h8.9v9.6h5.6v6.4h-5.6v18.2c0,1.5,0.1,2.3,0.5,2.7
	c0.4,0.4,1.5,0.5,3.3,0.5c0.3,0,0.5,0,0.9,0c0.3,0,0.7,0,0.9,0v6.7l-4.3,0.1c-4.3,0.1-7.2-0.5-8.7-2.3c-1.1-1.1-1.5-2.7-1.5-4.8
	v-21.1H141z M175.3,278.5h-9.1v-8.3h9.1V278.5z M166.3,282.5h9.1V317h-9.1V282.5z M204.6,282.5h9.6L201.8,317h-9.5L180,282.5h10.1
	l7.2,25.4L204.6,282.5z M240.6,283.3c2.4,1.1,4.4,2.8,6,5.1c1.5,2,2.3,4.4,2.8,7.1c0.3,1.6,0.4,3.9,0.3,6.8h-25.1
	c0.1,3.5,1.3,5.9,3.6,7.2c1.3,0.8,3.1,1.3,4.9,1.3c2,0,3.7-0.5,4.9-1.6c0.7-0.5,1.3-1.3,1.9-2.4h9.2c-0.3,2-1.3,4.1-3.3,6.3
	c-3.1,3.3-7.3,5.1-13,5.1c-4.5,0-8.7-1.5-12.1-4.3c-3.5-2.8-5.2-7.5-5.2-13.8c0-6,1.6-10.5,4.8-13.8c3.2-3.2,7.2-4.8,12.3-4.8
	C235.4,281.6,238.2,282.3,240.6,283.3z M227.1,291.1c-1.3,1.3-2.1,3.1-2.4,5.3h15.5c-0.1-2.4-0.9-4.1-2.4-5.5
	c-1.5-1.2-3.2-1.9-5.3-1.9C230.2,289.1,228.3,289.8,227.1,291.1z M255.6,270.7h20c5.5,0,9.3,1.6,11.6,4.8c1.3,1.9,2,4.1,2,6.7
	c0,2.9-0.8,5.3-2.5,7.2c-0.8,0.9-2.1,1.9-3.7,2.7c2.4,0.9,4.1,1.9,5.3,3.1c2.1,2,3.1,4.8,3.1,8.4c0,2.9-0.9,5.7-2.8,8.1
	c-2.8,3.6-7.3,5.5-13.5,5.5h-19.8v-46.5H255.6z M273.3,290.3c2.7,0,4.8-0.4,6.3-1.1c2.4-1.2,3.5-3.2,3.5-6.3c0-3.1-1.2-5.1-3.7-6.1
	c-1.5-0.5-3.5-0.9-6.3-0.9h-11.3v14.4H273.3z M275.3,311.6c3.9,0,6.7-1.1,8.3-3.3c1.1-1.5,1.6-3.1,1.6-5.1c0-3.3-1.5-5.6-4.5-6.9
	c-1.6-0.7-3.7-0.9-6.4-0.9h-12.6v16.3H275.3z M298.2,283.2h5.3v5.9c0.4-1.2,1.5-2.5,3.2-4.1s3.7-2.4,6-2.4c0.1,0,0.3,0,0.5,0
	c0.3,0,0.7,0,1.3,0.1v6c-0.4,0-0.7-0.1-0.9-0.1c-0.3,0-0.5,0-0.9,0c-2.8,0-5.1,0.9-6.5,2.8c-1.6,1.9-2.3,4-2.3,6.4v19.5h-5.7
	L298.2,283.2L298.2,283.2z M343.7,286.5c2.9,2.9,4.5,7.2,4.5,12.8c0,5.5-1.3,10-4,13.5c-2.7,3.6-6.7,5.3-12.3,5.3
	c-4.7,0-8.3-1.6-10.9-4.7c-2.7-3.2-4.1-7.3-4.1-12.7c0-5.7,1.5-10.1,4.3-13.6c2.8-3.3,6.7-5.1,11.5-5.1
	C337,282.3,340.8,283.6,343.7,286.5z M340.2,309.1c1.3-2.8,2.1-6,2.1-9.5c0-3.2-0.5-5.7-1.5-7.7c-1.6-3.1-4.3-4.7-8.1-4.7
	c-3.5,0-5.9,1.3-7.5,4s-2.4,5.9-2.4,9.6c0,3.6,0.8,6.5,2.4,8.9c1.6,2.4,4,3.6,7.5,3.6C336.2,313.4,338.8,311.9,340.2,309.1z
	 M354.6,270.7h5.5v27l14.6-14.4h7.2l-13,12.6l13.8,21.2h-7.2l-10.7-17.2l-4.7,4.5V317h-5.5V270.7z M406.3,284.1
	c2.3,1.1,4,2.5,5.1,4.4c1.1,1.7,1.9,3.7,2.3,6c0.4,1.6,0.5,4,0.5,7.5h-24.6c0.1,3.5,0.9,6.1,2.4,8.3c1.5,2.1,3.9,3.1,6.9,3.1
	c2.9,0,5.3-0.9,7.1-2.9c0.9-1.2,1.7-2.4,2.1-4h5.6c-0.1,1.2-0.7,2.7-1.5,4.1c-0.8,1.5-1.7,2.8-2.8,3.7c-1.7,1.7-3.9,2.8-6.4,3.5
	c-1.3,0.4-2.9,0.5-4.7,0.5c-4.1,0-7.7-1.5-10.7-4.5s-4.4-7.3-4.4-12.8c0-5.5,1.5-9.9,4.4-13.2c2.9-3.3,6.8-5.1,11.5-5.1
	C401.8,282.4,404,282.9,406.3,284.1z M408.3,297.4c-0.3-2.4-0.8-4.4-1.6-5.9c-1.6-2.8-4.1-4.1-7.7-4.1c-2.5,0-4.8,0.9-6.5,2.8
	c-1.7,1.9-2.7,4.3-2.8,7.2H408.3z M420.9,283.2h5.3v5.9c0.4-1.2,1.5-2.5,3.2-4.1s3.7-2.4,6-2.4c0.1,0,0.3,0,0.5,0
	c0.3,0,0.7,0,1.3,0.1v6c-0.4,0-0.7-0.1-0.9-0.1s-0.5,0-0.9,0c-2.8,0-5.1,0.9-6.5,2.8c-1.6,1.9-2.3,4-2.3,6.4v19.5h-5.7L420.9,283.2
	L420.9,283.2z M445.7,306.4c0.1,1.9,0.7,3.3,1.5,4.4c1.5,1.9,4,2.8,7.6,2.8c2.1,0,4-0.4,5.7-1.3c1.6-0.9,2.4-2.3,2.4-4.3
	c0-1.5-0.7-2.5-2-3.3c-0.8-0.4-2.5-0.9-4.9-1.6l-4.5-1.2c-2.9-0.7-5.1-1.5-6.5-2.4c-2.5-1.6-3.7-3.6-3.7-6.4c0-3.2,1.2-5.7,3.5-7.7
	c2.3-2,5.5-2.9,9.5-2.9c5.2,0,8.9,1.5,11.2,4.5c1.5,1.9,2.1,4,2.1,6.1h-5.3c-0.1-1.3-0.5-2.4-1.3-3.5c-1.3-1.5-3.6-2.3-6.9-2.3
	c-2.1,0-3.9,0.4-4.9,1.2c-1.1,0.8-1.7,1.9-1.7,3.2c0,1.5,0.8,2.7,2.3,3.5c0.8,0.5,2.1,0.9,3.7,1.3l3.9,0.9c4.1,0.9,6.9,2,8.4,2.9
	c2.3,1.5,3.3,3.7,3.3,6.8s-1.2,5.6-3.5,7.7c-2.3,2.1-5.9,3.3-10.5,3.3c-5.1,0-8.7-1.2-10.8-3.5c-2.1-2.3-3.2-5.1-3.5-8.5h5.2V306.4z
	"/>
<linearGradient id="SVGID_1_" gradientUnits="userSpaceOnUse" x1="3375.5273" y1="263.9049" x2="3413.4446" y2="263.9049" gradientTransform="matrix(-1 0 0 -1 3282.2446 560)">
	<stop  offset="0" style="stop-color:#D81222"/>
	<stop  offset="1" style="stop-color:#960B1A"/>
</linearGradient>
<polygon class="st1" points="-93.3,317 -131.2,317 -131.2,275.2 "/>
<circle class="st2" cx="-98.6" cy="285.5" r="11.3"/>
<polygon class="st2" points="-93.3,231.3 -131.2,275.2 -131.2,317 "/>
</svg>
