<svg width="890" height="654" viewBox="0 0 890 654" fill="none" xmlns="http://www.w3.org/2000/svg">
<g filter="url(#filter0_d)">
<path d="M885.731 73.1233C884.288 64.8065 876.749 58.9238 868.297 58.9238H728.668C719.788 58.9238 711.99 65.415 710.987 74.239C710.93 74.7236 710.896 75.1969 710.885 75.6702C710.705 81.1923 706.31 85.6212 700.777 85.6212H651.901C642.344 85.6212 634.602 93.3633 634.602 102.92C634.602 112.476 642.344 120.218 651.901 120.218H651.935C656.431 120.218 659.846 124.095 659.485 128.592C659.451 129.054 659.429 129.527 659.429 130C659.429 130.102 659.429 130.192 659.429 130.293C659.496 134.598 656.116 138.148 651.811 138.148H638.276C628.731 138.148 621 145.879 621 155.424V155.481C621 165.026 628.731 172.757 638.276 172.757H831.243C840.788 172.757 848.519 165.026 848.519 155.481V155.458C848.519 155.21 848.519 154.973 848.508 154.726C848.339 150.669 851.629 147.31 855.686 147.31C865.006 147.31 873.019 140.154 873.458 130.846C873.932 120.906 866.009 112.702 856.171 112.702H856.137C851.663 112.702 848.688 108.87 848.575 104.396C848.553 103.551 848.598 102.57 848.598 101.737C848.598 97.3189 851.618 93.5211 856.036 93.5211H868.68C879.273 93.5323 887.624 84.0435 885.731 73.1233Z" fill="black"/>
<path d="M751.849 109.761C751.849 110.673 751.117 111.406 750.204 111.406C749.291 111.406 748.559 110.673 748.559 109.761C748.559 108.848 749.291 108.115 750.204 108.115C751.117 108.115 751.849 108.848 751.849 109.761Z" fill="#F5F8FB"/>
<path d="M848.653 70.7343C848.653 72.0529 847.583 73.1235 846.264 73.1235C844.946 73.1235 843.875 72.0529 843.875 70.7343C843.875 69.4158 844.946 68.3452 846.264 68.3452C847.583 68.3452 848.653 69.4158 848.653 70.7343Z" fill="#F5F8FB"/>
<path d="M868.422 40.8929H840.981C835.842 40.8929 831.684 36.7345 831.684 31.5956C831.684 26.4568 835.842 22.2983 840.981 22.2983H868.422C873.561 22.2983 877.719 26.4568 877.719 31.5956C877.719 36.7345 873.55 40.8929 868.422 40.8929Z" fill="black"/>
<path d="M688.865 114.8C688.55 114.8 688.302 114.552 688.302 114.236V77.7681C688.302 77.4525 688.55 77.2046 688.865 77.2046C689.181 77.2046 689.429 77.4525 689.429 77.7681V114.236C689.429 114.552 689.181 114.8 688.865 114.8Z" fill="#7F8DEF"/>
<path d="M735.285 161.623C734.97 161.623 734.722 161.375 734.722 161.059V83.8071C734.722 83.4916 734.97 83.2437 735.285 83.2437C735.601 83.2437 735.849 83.4916 735.849 83.8071V161.059C735.849 161.364 735.589 161.623 735.285 161.623Z" fill="#7F8DEF"/>
<path d="M784.803 113.479C784.487 113.479 784.239 113.231 784.239 112.916V81.7895C784.239 81.474 784.487 81.2261 784.803 81.2261C785.118 81.2261 785.366 81.474 785.366 81.7895V112.916C785.366 113.231 785.107 113.479 784.803 113.479Z" fill="#7F8DEF"/>
<rect x="778.392" y="131.657" width="40.9081" height="1.12695" fill="black"/>
<rect x="778.392" y="145.078" width="40.9081" height="1.12695" fill="black"/>
<rect x="778.392" y="158.488" width="40.9081" height="1.12695" fill="black"/>
<path d="M789.186 157.687C791.614 147.478 785.306 137.233 775.097 134.805C764.888 132.377 754.643 138.684 752.215 148.894C749.787 159.103 756.095 169.347 766.304 171.776C776.513 174.204 786.758 167.896 789.186 157.687Z" fill="black"/>
<path fill-rule="evenodd" clip-rule="evenodd" d="M745.146 153.249C745.146 164.034 753.924 172.813 764.709 172.813C775.494 172.813 784.273 164.034 784.273 153.249C784.273 142.464 775.494 133.685 764.709 133.685C753.924 133.685 745.146 142.464 745.146 153.249ZM746.274 153.238C746.274 143.073 754.546 134.801 764.711 134.801C774.876 134.801 783.147 143.073 783.147 153.238C783.147 163.403 774.876 171.675 764.711 171.675C754.546 171.675 746.274 163.403 746.274 153.238Z" fill="black"/>
<path fill-rule="evenodd" clip-rule="evenodd" d="M657.705 154.389L663.622 172.814L721.456 172.454H721.761L722.617 171.146L699.706 117.729L680.447 119.667L657.705 154.389ZM664.432 171.685L658.933 154.556L681.066 120.747L698.962 118.944L721.309 171.043L721.118 171.336L664.432 171.685Z" fill="black"/>
<rect x="663.483" y="172.069" width="64.4494" height="1.12693" transform="rotate(-56.7628 663.483 172.069)" fill="black"/>
<path fill-rule="evenodd" clip-rule="evenodd" d="M673.281 157.092L721.267 172.43L721.593 171.427L722.394 170.728L689.295 132.649L673.281 157.092ZM721.376 171.292L675.025 156.473L689.405 134.52L721.376 171.292Z" fill="black"/>
<path fill-rule="evenodd" clip-rule="evenodd" d="M664.808 143.545L674.161 157.813L690.31 133.144L673.113 130.856L664.808 143.545ZM674.148 155.751L666.147 143.535L673.652 132.062L688.381 134.012L674.148 155.751Z" fill="black"/>
<path d="M763.787 137.438C763.81 138.858 763.832 140.267 763.843 141.687C763.843 141.89 763.855 142.093 763.855 142.295C763.866 142.735 764.238 143.163 764.7 143.141C765.151 143.118 765.556 142.769 765.545 142.295C765.523 140.876 765.5 139.467 765.489 138.047C765.489 137.844 765.478 137.641 765.478 137.438C765.466 136.999 765.094 136.571 764.632 136.593C764.182 136.616 763.787 136.965 763.787 137.438Z" fill="black"/>
<path d="M763.787 164.598C763.81 166.017 763.832 167.426 763.843 168.846C763.843 169.049 763.855 169.252 763.855 169.455C763.866 169.894 764.238 170.322 764.7 170.3C765.151 170.277 765.556 169.928 765.545 169.455C765.523 168.035 765.5 166.626 765.489 165.206C765.489 165.003 765.478 164.8 765.478 164.598C765.466 164.158 765.094 163.73 764.632 163.752C764.182 163.764 763.787 164.124 763.787 164.598Z" fill="black"/>
<path d="M735.285 49.5634C734.97 49.5634 734.722 49.3155 734.722 49V15.5635C734.722 15.2479 734.97 15 735.285 15C735.601 15 735.849 15.2479 735.849 15.5635V49C735.849 49.3155 735.589 49.5634 735.285 49.5634Z" fill="#7F8DEF"/>
<path d="M784.803 22.8626C784.487 22.8626 784.239 22.6147 784.239 22.2991V0.616696C784.239 0.301151 784.487 0.0532227 784.803 0.0532227C785.118 0.0532227 785.366 0.301151 785.366 0.616696V22.2991C785.366 22.6034 785.107 22.8626 784.803 22.8626Z" fill="#7F8DEF"/>
<path fill-rule="evenodd" clip-rule="evenodd" d="M818.057 105.759C818.159 105.861 818.294 105.917 818.441 105.917C818.497 105.917 818.542 105.917 818.598 105.906C818.79 105.85 818.948 105.692 818.993 105.5L823.005 90.1625C823.061 89.9596 822.993 89.7455 822.847 89.6103C822.689 89.4638 822.475 89.4187 822.283 89.4863L807.363 94.4111C807.171 94.4674 807.036 94.6252 806.991 94.8168C806.946 95.0083 807.002 95.2112 807.149 95.3464L818.057 105.759ZM818.137 104.295L808.591 95.1892L821.641 90.8842L818.137 104.295Z" fill="#F5F8FB"/>
<path fill-rule="evenodd" clip-rule="evenodd" d="M664.138 106.099C664.138 109.063 666.549 111.486 669.524 111.486C672.5 111.486 674.911 109.063 674.911 106.099C674.911 103.135 672.488 100.712 669.524 100.712C666.561 100.712 664.138 103.135 664.138 106.099ZM665.264 106.089C665.264 103.745 667.168 101.83 669.524 101.83C671.879 101.83 673.783 103.745 673.783 106.089C673.783 108.433 671.868 110.349 669.524 110.349C667.18 110.349 665.264 108.433 665.264 106.089Z" fill="#F5F8FB"/>
</g>
<g filter="url(#filter1_d)">
<path d="M282 546C282 550.967 277.967 555 273 555C268.033 555 264 550.967 264 546C264 541.033 268.033 537 273 537C277.967 537 282 541.033 282 546Z" fill="black" fill-opacity="0.87"/>
</g>
<g filter="url(#filter2_d)">
<path fill-rule="evenodd" clip-rule="evenodd" d="M218.522 530.698C218.71 530.886 218.961 530.991 219.233 530.991H219.233C219.338 530.991 219.422 530.991 219.526 530.97C219.882 530.865 220.175 530.572 220.259 530.216L227.71 501.731C227.815 501.354 227.689 500.956 227.417 500.705C227.124 500.433 226.726 500.349 226.37 500.475L198.659 509.621C198.303 509.726 198.052 510.019 197.969 510.375C197.885 510.731 197.99 511.107 198.262 511.359L218.522 530.698ZM218.671 527.978L200.944 511.066L225.181 503.071L218.671 527.978Z" fill="black" fill-opacity="0.87"/>
</g>
<g filter="url(#filter3_d)">
<path fill-rule="evenodd" clip-rule="evenodd" d="M827.821 621.422C827.959 621.215 828.008 620.965 827.957 620.715L827.957 620.715C827.938 620.619 827.922 620.543 827.884 620.451C827.721 620.144 827.398 619.93 827.056 619.919L799.549 618.392C799.184 618.366 798.842 618.555 798.663 618.851C798.468 619.171 798.465 619.551 798.647 619.854L812.194 643.561C812.356 643.867 812.672 644.043 813.014 644.054C813.355 644.064 813.681 643.898 813.861 643.602L827.821 621.422ZM825.299 621.792L813.093 641.197L801.248 620.461L825.299 621.792Z" fill="black" fill-opacity="0.87"/>
</g>
<g filter="url(#filter4_d)">
<path d="M115 630.5C115 633.551 112.551 636 109.5 636C106.449 636 104 633.551 104 630.5C104 627.449 106.449 625 109.5 625C112.551 625 115 627.449 115 630.5Z" fill="black" fill-opacity="0.87"/>
</g>
<g filter="url(#filter5_d)">
<path d="M154 137.5C154 139.442 152.442 141 150.5 141C148.558 141 147 139.442 147 137.5C147 135.558 148.558 134 150.5 134C152.442 134 154 135.558 154 137.5Z" fill="black" fill-opacity="0.87"/>
</g>
<g filter="url(#filter6_d)">
<path fill-rule="evenodd" clip-rule="evenodd" d="M147.373 384.004C147.373 389.509 151.852 394.009 157.378 394.009C162.903 394.009 167.382 389.509 167.382 384.004C167.382 378.5 162.882 374 157.378 374C151.873 374 147.373 378.5 147.373 384.004ZM149.465 383.986C149.465 379.632 153.002 376.074 157.377 376.074C161.751 376.074 165.288 379.632 165.288 383.986C165.288 388.339 161.73 391.897 157.377 391.897C153.023 391.897 149.465 388.339 149.465 383.986Z" fill="black" fill-opacity="0.87"/>
</g>
<g filter="url(#filter7_d)">
<path fill-rule="evenodd" clip-rule="evenodd" d="M4 89.0045C4 94.509 8.47899 99.0089 14.0045 99.0089C19.53 99.0089 24.0089 94.509 24.0089 89.0045C24.0089 83.4999 19.509 79 14.0045 79C8.49992 79 4 83.4999 4 89.0045ZM6.092 88.9855C6.092 84.6321 9.62915 81.074 14.0035 81.074C18.3778 81.074 21.915 84.6321 21.915 88.9855C21.915 93.3389 18.3569 96.897 14.0035 96.897C9.65008 96.897 6.092 93.3389 6.092 88.9855Z" fill="black" fill-opacity="0.87"/>
</g>
<g filter="url(#filter8_d)">
<path d="M631.745 539.493H783.653C794.267 539.493 802.865 530.895 802.865 520.281V153.415C802.865 142.801 794.267 134.202 783.653 134.202H631.745C621.131 134.202 612.532 142.801 612.532 153.415V520.281C612.532 530.883 621.131 539.493 631.745 539.493Z" fill="black"/>
<path fill-rule="evenodd" clip-rule="evenodd" d="M631.746 540.081H783.654C794.572 540.081 803.464 531.201 803.452 520.282V153.416C803.452 142.498 794.572 133.618 783.654 133.618H631.746C620.827 133.618 611.947 142.498 611.947 153.416V520.282C611.947 531.201 620.827 540.081 631.746 540.081ZM613.119 153.404C613.119 143.13 621.472 134.777 631.746 134.777H783.654C793.928 134.777 802.281 143.13 802.281 153.404V520.27C802.281 530.544 793.928 538.897 783.654 538.897H631.746C621.472 538.897 613.119 530.544 613.119 520.27V153.404Z" fill="black"/>
<path d="M642.712 539.494H794.62C805.233 539.494 813.832 530.896 813.832 520.282V153.416C813.832 142.802 805.233 134.203 794.62 134.203H642.712C632.098 134.203 623.499 142.802 623.499 153.416V520.282C623.487 530.884 632.098 539.494 642.712 539.494Z" fill="white"/>
<path fill-rule="evenodd" clip-rule="evenodd" d="M642.71 540.08H794.619C805.537 540.08 814.417 531.2 814.417 520.282V153.415C814.417 142.497 805.537 133.617 794.619 133.617H642.71C631.792 133.617 622.912 142.497 622.912 153.415V520.282C622.912 531.2 631.792 540.08 642.71 540.08ZM624.085 153.404C624.085 143.13 632.437 134.777 642.711 134.777H794.619C804.894 134.777 813.246 143.13 813.246 153.404V520.27C813.246 530.544 804.894 538.897 794.619 538.897H642.711C632.437 538.897 624.085 530.544 624.085 520.27V153.404Z" fill="black"/>
<rect x="769.665" y="489.636" width="23.43" height="17.5725" fill="white"/>
<rect x="719.291" y="489.636" width="23.43" height="17.5725" fill="white"/>
<path fill-rule="evenodd" clip-rule="evenodd" d="M687.321 152.034H753.218C758.01 152.034 761.911 148.133 761.911 143.341V133.606H678.629V143.341C678.629 148.133 682.53 152.034 687.321 152.034ZM679.8 143.341V134.777H760.739V143.341C760.739 147.488 757.365 150.862 753.218 150.862H687.321C683.174 150.862 679.8 147.488 679.8 143.341Z" fill="black"/>
<path fill-rule="evenodd" clip-rule="evenodd" d="M631.489 113.187H761.466C772.795 113.187 781.956 122.359 781.956 133.688C781.956 133.86 781.954 134.032 781.949 134.203H642.711C632.098 134.203 623.499 142.802 623.499 153.416V157.038C622.295 158.02 621.263 159.228 620.476 160.62C619.254 162.791 617.965 165.077 616.599 167.503C613.657 172.723 610.354 178.585 606.571 185.304C605.963 184.928 601.698 182.31 596.33 179.016C586.811 173.173 573.823 165.201 571.613 163.83C573.659 160.198 575.506 156.921 577.217 153.885C580.003 148.941 582.428 144.639 584.757 140.494C594.247 123.648 612.147 113.187 631.489 113.187Z" fill="white"/>
<path d="M781.949 134.203V134.703H782.437L782.449 134.216L781.949 134.203ZM623.499 157.038L623.815 157.426L623.999 157.276V157.038H623.499ZM620.476 160.62L620.041 160.374L620.041 160.375L620.476 160.62ZM616.599 167.503L617.034 167.748L616.599 167.503ZM606.571 185.304L606.308 185.729L606.751 186.003L607.006 185.549L606.571 185.304ZM596.33 179.016L596.591 178.589L596.33 179.016ZM571.613 163.83L571.178 163.585L570.942 164.003L571.35 164.255L571.613 163.83ZM577.217 153.885L576.781 153.64L577.217 153.885ZM584.757 140.494L584.322 140.249L584.322 140.249L584.757 140.494ZM761.466 112.687H631.489V113.687H761.466V112.687ZM782.456 133.688C782.456 122.084 773.071 112.687 761.466 112.687V113.687C772.518 113.687 781.456 122.635 781.456 133.688H782.456ZM782.449 134.216C782.454 134.04 782.456 133.864 782.456 133.688H781.456C781.456 133.856 781.454 134.024 781.45 134.191L782.449 134.216ZM781.949 133.703H642.711V134.703H781.949V133.703ZM642.711 133.703C631.822 133.703 622.999 142.526 622.999 153.416H623.999C623.999 143.078 632.374 134.703 642.711 134.703V133.703ZM622.999 153.416V157.038H623.999V153.416H622.999ZM620.912 160.866C621.667 159.53 622.658 158.369 623.815 157.426L623.183 156.651C621.931 157.671 620.859 158.927 620.041 160.374L620.912 160.866ZM617.034 167.748C618.401 165.323 619.689 163.036 620.912 160.866L620.041 160.375C618.818 162.545 617.53 164.832 616.163 167.257L617.034 167.748ZM607.006 185.549C610.79 178.83 614.093 172.969 617.034 167.748L616.163 167.257C613.222 172.478 609.919 178.339 606.135 185.059L607.006 185.549ZM596.068 179.442C601.437 182.737 605.701 185.354 606.308 185.729L606.834 184.879C606.225 184.502 601.958 181.884 596.591 178.589L596.068 179.442ZM571.35 164.255C573.561 165.627 586.55 173.599 596.068 179.442L596.591 178.589C587.071 172.746 574.085 164.776 571.877 163.405L571.35 164.255ZM576.781 153.64C575.07 156.675 573.223 159.953 571.178 163.585L572.049 164.076C574.094 160.444 575.942 157.166 577.652 154.131L576.781 153.64ZM584.322 140.249C581.992 144.393 579.568 148.695 576.781 153.64L577.652 154.131C580.439 149.186 582.863 144.884 585.193 140.739L584.322 140.249ZM631.489 112.687C611.967 112.687 593.9 123.245 584.322 140.249L585.193 140.74C594.594 124.051 612.328 113.687 631.489 113.687V112.687Z" fill="black"/>
<path d="M421.732 471.384L375.282 435.7L445.666 344.054L401.196 204.716L456.994 186.909L506.115 340.844C509.032 349.982 507.287 359.975 501.441 367.589L421.732 471.384Z" fill="black"/>
<path d="M678.149 425.203C659.381 431.26 624.178 436.918 569.129 436.918C537.253 436.918 514.807 427.207 504.24 408.837C495.594 393.807 497.152 377.207 500.924 370.705C502.213 368.503 504.064 365.234 506.887 360.291C505.669 359.564 472.902 339.567 471.742 339.215C468.673 344.616 466.81 347.802 465.475 350.099C455.224 367.73 451.862 400.028 468.696 429.28C477.26 444.158 489.725 455.92 505.763 464.238C523.265 473.317 544.574 477.921 569.117 477.921C620.874 477.921 663.388 472.098 695.463 460.618C720.627 451.609 739.512 433.591 742.71 425.203C742.721 425.203 678.348 425.145 678.149 425.203Z" fill="white" stroke="black"/>
<path d="M593.764 330.225C606.844 321.457 610.339 303.745 601.571 290.664C592.802 277.584 575.09 274.089 562.01 282.857C548.93 291.626 545.434 309.338 554.203 322.418C562.971 335.498 580.683 338.994 593.764 330.225Z" fill="white" stroke="black"/>
<path d="M552.27 319.276C552.27 319.276 593.542 283.487 593.929 283.042C577.106 271.245 561.654 282.292 558.069 285.853C548.99 294.921 546.788 308.358 552.27 319.276Z" fill="black"/>
<path d="M564.584 331.835C562.616 332.713 560.401 333.065 558.117 332.772C551.498 331.905 546.835 325.837 547.702 319.23C548.569 312.622 554.638 307.948 561.245 308.815C562.077 308.92 562.873 309.108 563.623 309.377" fill="white"/>
<path d="M564.584 331.835C562.616 332.713 560.401 333.065 558.117 332.772C551.498 331.905 546.835 325.837 547.702 319.23C548.569 312.622 554.638 307.948 561.245 308.815C562.077 308.92 562.873 309.108 563.623 309.377" stroke="black"/>
<path d="M566.212 320.225C566.177 320.225 566.154 320.225 566.119 320.213L554.661 318.386C554.345 318.339 554.122 318.034 554.169 317.718C554.216 317.402 554.521 317.179 554.837 317.226L566.294 319.053C566.611 319.1 566.833 319.405 566.786 319.721C566.751 320.014 566.505 320.225 566.212 320.225Z" fill="black"/>
<path d="M471.731 339.204L506.911 360.291L606.582 185.304L571.613 163.831L547.538 206.028C547.538 206.028 539.994 199.573 518.321 183.758C496.051 167.509 480.002 157.598 480.002 157.598L445.642 217.555C445.642 217.555 468.427 233.136 483.739 245.132C499.554 257.539 511.503 269.371 511.503 269.371L471.731 339.204Z" fill="#FF6200"/>
<path d="M443.767 538.288H401.418C397.599 538.288 393.908 536.94 390.98 534.492L340.254 492.049C336.88 489.272 336.376 484.293 339.129 480.896L395.584 527.451C398.594 529.935 400.469 530.357 404.37 530.263L451.499 530.111C451.476 530.099 450.304 538.288 443.767 538.288Z" fill="#FF6200"/>
<path d="M369.576 370.811C358.13 370.811 347.657 364.122 342.889 353.578L292.726 242.461L346.111 218.364L363.8 257.55L388.566 173.531C392.174 160.89 400.913 150.171 412.57 144.091C424.308 137.976 438.19 136.98 450.679 141.361C452.377 141.959 454.006 142.708 455.564 143.599L479.989 157.622L445.629 217.579L438.085 212.659L397.657 349.806C394.189 361.556 383.786 369.909 371.579 370.74C370.911 370.787 370.244 370.811 369.576 370.811Z" fill="black"/>
<path d="M224.697 198.061L312.513 161.007C316.543 159.32 321.182 161.194 322.904 165.213L220.679 207.96C218.945 203.895 220.62 199.772 224.697 198.061Z" fill="#FF6200"/>
<path d="M476.229 331.319L511.374 352.441L515.814 344.65L480.658 323.528L476.229 331.319Z" fill="white"/>
<path d="M567.103 171.75L562.663 179.54L597.831 200.674L602.271 192.884L567.103 171.75Z" fill="white"/>
<path d="M376.312 435.336L339.188 481.54L394.588 526.666C397.388 528.951 400.914 530.157 404.534 530.075L450.866 530.099C450.878 503.869 436.668 493.337 426.441 493.337L405.939 492.224L421.333 470.927L376.312 435.336Z" fill="white"/>
<path fill-rule="evenodd" clip-rule="evenodd" d="M404.533 530.662L450.866 530.685C451.018 530.685 451.171 530.627 451.288 530.521C451.405 530.416 451.464 530.263 451.464 530.111C451.464 515.104 446.836 506.283 442.959 501.527C438.483 496.032 432.31 492.764 426.487 492.764L407.064 491.709L421.836 471.279C422.012 471.021 421.965 470.669 421.719 470.47L376.687 434.88C376.441 434.681 376.066 434.728 375.867 434.974L338.742 481.178C338.531 481.424 338.578 481.799 338.824 481.998L394.224 527.124C397.13 529.49 400.808 530.779 404.533 530.662ZM450.28 529.513L404.522 529.49C401.019 529.56 397.657 528.412 394.962 526.222L340.019 481.459L376.417 436.169L420.548 471.044L405.482 491.885C405.353 492.061 405.33 492.283 405.424 492.482C405.517 492.67 405.705 492.799 405.916 492.81L426.452 493.923C431.958 493.923 437.78 497.04 442.045 502.253C445.758 506.798 450.175 515.198 450.28 529.513Z" fill="black"/>
<path d="M426.512 530.498C426.183 530.498 425.926 530.24 425.926 529.912L425.855 493.338C425.855 493.01 426.113 492.752 426.441 492.752C426.769 492.752 427.027 493.01 427.027 493.338L427.097 529.912C427.097 530.228 426.84 530.486 426.512 530.498Z" fill="black"/>
<path d="M407.978 505.111C407.989 505.978 407.298 506.681 406.431 506.692C405.564 506.704 404.861 506.013 404.85 505.146C404.838 504.279 405.529 503.576 406.396 503.565C407.251 503.553 407.966 504.256 407.978 505.111Z" fill="black"/>
<path d="M417.502 505.006C417.514 505.872 416.823 506.575 415.956 506.587C415.089 506.599 414.386 505.908 414.374 505.041C414.362 504.174 415.054 503.471 415.921 503.459C416.787 503.447 417.49 504.15 417.502 505.006Z" fill="black"/>
<path d="M361.61 500.332C361.481 500.332 361.352 500.285 361.235 500.203C360.989 500.003 360.954 499.629 361.153 499.383C362.465 497.789 363.601 496.056 364.539 494.24C370.794 482.103 367.83 467.588 357.346 458.942C357.1 458.732 357.064 458.368 357.264 458.122C357.474 457.876 357.838 457.841 358.084 458.04C369.002 467.049 372.083 482.162 365.57 494.79C364.597 496.676 363.414 498.481 362.043 500.132C361.95 500.261 361.786 500.332 361.61 500.332Z" fill="black"/>
<path d="M405.962 492.225L397.035 485.149L405.962 492.225Z" fill="white"/>
<path d="M405.963 492.811C405.834 492.811 405.705 492.764 405.6 492.682L396.673 485.606C396.415 485.407 396.38 485.032 396.579 484.786C396.778 484.54 397.153 484.493 397.399 484.692L406.326 491.768C406.584 491.967 406.619 492.342 406.42 492.588C406.302 492.729 406.138 492.811 405.963 492.811Z" fill="black"/>
<path d="M348.736 226.002L322.295 164.979L220.938 207.398C230.122 229.434 255.462 239.837 277.486 230.618L286.389 226.986L296.581 249.666L348.736 226.002Z" fill="white"/>
<path fill-rule="evenodd" clip-rule="evenodd" d="M296.381 250.205C296.451 250.228 296.521 250.24 296.592 250.24C296.674 250.24 296.756 250.228 296.861 250.181L349.004 226.529C349.297 226.4 349.426 226.06 349.297 225.767L322.857 164.744C322.728 164.451 322.388 164.322 322.095 164.44L220.737 206.859C220.433 206.977 220.292 207.328 220.421 207.621C224.919 218.434 233.366 226.833 244.191 231.273C255.015 235.713 266.929 235.678 277.719 231.156L286.095 227.736L296.053 249.9C296.123 250.041 296.24 250.146 296.381 250.205ZM286.939 226.728C286.834 226.517 286.623 226.388 286.4 226.388C286.33 226.388 286.248 226.4 286.189 226.412L277.286 230.055C266.778 234.46 255.18 234.495 244.648 230.172C234.28 225.92 226.174 217.942 221.734 207.691L322.014 165.728L347.986 225.697L296.897 248.869L286.939 226.728Z" fill="black"/>
<path d="M260.815 234.577C255.18 234.577 249.557 233.476 244.18 231.273C233.355 226.833 224.909 218.434 220.41 207.621C220.281 207.328 220.422 206.976 220.726 206.859C221.019 206.742 221.371 206.871 221.488 207.176C225.869 217.696 234.081 225.861 244.625 230.195C255.157 234.518 266.755 234.483 277.263 230.078L298.174 221.409C298.479 221.28 298.818 221.433 298.936 221.726C299.064 222.018 298.912 222.37 298.619 222.487L277.708 231.144C272.272 233.429 266.544 234.577 260.815 234.577Z" fill="black"/>
<path d="M263.697 234.448C263.463 234.448 263.252 234.308 263.158 234.085L247.343 196.328C247.214 196.035 247.354 195.683 247.659 195.566C247.964 195.437 248.303 195.578 248.42 195.883L264.236 233.64C264.365 233.933 264.224 234.284 263.919 234.401C263.849 234.437 263.779 234.448 263.697 234.448Z" fill="black"/>
<path d="M287.946 212.377C287.618 211.581 287.993 210.667 288.789 210.327C289.586 209.999 290.5 210.374 290.839 211.171C291.167 211.967 290.793 212.881 289.996 213.221C289.199 213.549 288.286 213.174 287.946 212.377Z" fill="black"/>
<path d="M279.161 216.055C278.833 215.259 279.208 214.345 280.004 214.005C280.801 213.677 281.715 214.052 282.054 214.849C282.382 215.645 282.007 216.559 281.211 216.899C280.414 217.227 279.489 216.852 279.161 216.055Z" fill="black"/>
<path d="M270.375 219.734C270.046 218.938 270.421 218.024 271.218 217.684C272.015 217.356 272.928 217.731 273.268 218.528C273.596 219.324 273.221 220.238 272.425 220.578C271.628 220.917 270.703 220.531 270.375 219.734Z" fill="black"/>
<path d="M322.916 194.969C313.392 194.969 304.16 190.306 298.291 181.907C297.073 180.161 296.03 178.275 295.21 176.295C295.081 176.002 295.222 175.651 295.526 175.534C295.831 175.405 296.171 175.545 296.288 175.85C297.084 177.748 298.08 179.564 299.252 181.239C307.147 192.544 321.369 196.808 333.834 191.595C334.127 191.466 334.478 191.607 334.596 191.911C334.725 192.204 334.584 192.555 334.279 192.673C330.589 194.219 326.723 194.969 322.916 194.969Z" fill="black"/>
<path d="M421.661 271.092C421.614 271.092 421.555 271.081 421.497 271.069C421.18 270.975 421.005 270.659 421.098 270.343L437.781 211.967C437.827 211.791 437.968 211.639 438.144 211.58C438.319 211.522 438.519 211.533 438.671 211.639L445.688 216.219L479.486 157.328C479.65 157.047 480.001 156.953 480.282 157.117C480.564 157.281 480.657 157.633 480.493 157.914L446.379 217.344C446.297 217.485 446.168 217.59 446.004 217.625C445.852 217.66 445.688 217.637 445.548 217.543L438.671 213.056L422.2 270.671C422.153 270.917 421.918 271.092 421.661 271.092Z" fill="white"/>
<path d="M355.226 287.213C355.179 287.213 355.121 287.201 355.074 287.189C354.757 287.107 354.582 286.779 354.664 286.474L362.97 256.062C363.052 255.746 363.38 255.57 363.684 255.652C364 255.734 364.176 256.062 364.094 256.367L355.788 286.779C355.73 287.037 355.484 287.213 355.226 287.213Z" fill="white"/>
<path d="M430.389 460.688C430.26 460.688 430.143 460.652 430.025 460.57L383.693 424.723C383.435 424.524 383.388 424.16 383.587 423.903C383.786 423.645 384.15 423.598 384.407 423.797L430.74 459.645C430.998 459.844 431.045 460.207 430.845 460.465C430.74 460.606 430.564 460.688 430.389 460.688Z" fill="white"/>
<path d="M300.739 260.807C300.517 260.807 300.306 260.678 300.2 260.456C300.071 260.163 300.2 259.811 300.493 259.682L353.972 235.784C354.265 235.655 354.616 235.784 354.745 236.077C354.874 236.37 354.745 236.721 354.452 236.85L300.973 260.748C300.903 260.784 300.821 260.807 300.739 260.807Z" fill="white"/>
<path d="M617.125 407.725H603.746C592.582 407.725 583.491 398.634 583.491 387.47C583.491 376.306 592.582 367.215 603.746 367.215H617.125V368.386H603.746C593.226 368.386 584.663 376.95 584.663 387.47C584.663 397.99 593.226 406.554 603.746 406.554H617.125V407.725Z" fill="black"/>
<path d="M560.273 184.308H537.018C528.958 184.308 522.41 177.76 522.41 169.7C522.41 161.64 528.958 155.091 537.018 155.091H543.86C551.275 155.091 557.297 149.058 557.297 141.654C557.297 134.25 551.264 128.217 543.86 128.217H496.238C488.179 128.217 481.63 121.668 481.63 113.609C481.63 105.549 488.179 99 496.238 99H686.419C694.479 99 701.028 105.549 701.028 113.609C701.028 113.937 700.77 114.194 700.442 114.194C700.114 114.194 699.856 113.937 699.856 113.609C699.856 106.193 693.823 100.171 686.419 100.171H496.238C488.823 100.171 482.801 106.205 482.801 113.609C482.801 121.012 488.835 127.046 496.238 127.046H543.86C551.92 127.046 558.468 133.594 558.468 141.654C558.468 149.714 551.92 156.263 543.86 156.263H537.018C529.603 156.263 523.581 162.296 523.581 169.7C523.581 177.104 529.614 183.137 537.018 183.137H560.273C560.601 183.137 560.858 183.395 560.858 183.723C560.858 184.051 560.601 184.308 560.273 184.308Z" fill="black"/>
</g>
<g filter="url(#filter9_d)">
<rect x="660.534" y="380.85" width="216.99" height="45.4165" rx="11.0101" transform="rotate(2.21098 660.534 380.85)" fill="white"/>
<rect x="671.112" y="392.276" width="22.0201" height="22.0201" rx="7.34004" transform="rotate(2.21098 671.112 392.276)" fill="#E6EEF5"/>
<path d="M679.253 403.942L677.915 403.89L677.876 404.893L679.441 404.953L679.423 405.406L677.292 405.323L677.418 402.064L679.533 402.146L679.516 402.603L677.967 402.543L677.932 403.443L679.271 403.494L679.253 403.942ZM683.08 402.74L682.063 402.701L681.955 405.503L681.393 405.482L681.502 402.679L680.494 402.64L680.512 402.184L683.097 402.284L683.08 402.74ZM686.02 404.277L684.708 404.227L684.655 405.608L684.089 405.586L684.215 402.327L686.285 402.407L686.267 402.863L684.763 402.805L684.726 403.774L686.038 403.825L686.02 404.277Z" fill="#71758E"/>
<path d="M704.651 400.581L701.974 400.478L701.897 402.484L705.026 402.604L704.991 403.509L700.729 403.344L700.981 396.826L705.211 396.989L705.176 397.903L702.078 397.783L702.009 399.583L704.686 399.686L704.651 400.581ZM710.998 398.127L708.965 398.049L708.749 403.654L707.625 403.61L707.841 398.006L705.827 397.928L705.862 397.014L711.033 397.214L710.998 398.127ZM715.572 401.151L712.949 401.05L712.842 403.812L711.709 403.768L711.961 397.25L716.102 397.41L716.067 398.323L713.058 398.207L712.984 400.145L715.607 400.247L715.572 401.151Z" fill="black" fill-opacity="0.87"/>
<path d="M832.052 402.927L831.933 406.029C831.914 406.459 831.764 406.806 831.484 407.069C831.206 407.333 830.837 407.472 830.376 407.488L830.216 407.488C829.717 407.469 829.324 407.319 829.038 407.038C828.751 406.757 828.615 406.38 828.629 405.908L828.749 402.799L829.345 402.822L829.226 405.912C829.213 406.242 829.294 406.502 829.468 406.693C829.643 406.882 829.899 406.983 830.235 406.996C830.576 407.009 830.839 406.928 831.026 406.753C831.215 406.579 831.315 406.326 831.328 405.996L831.448 402.903L832.052 402.927ZM834.249 405.544C833.738 405.376 833.369 405.18 833.141 404.955C832.916 404.729 832.809 404.457 832.821 404.14C832.835 403.78 832.99 403.489 833.285 403.266C833.583 403.041 833.961 402.938 834.421 402.955C834.734 402.967 835.011 403.039 835.25 403.169C835.492 403.3 835.676 403.475 835.801 403.693C835.929 403.911 835.988 404.147 835.978 404.399L835.373 404.376C835.384 404.1 835.304 403.881 835.135 403.717C834.966 403.552 834.721 403.463 834.402 403.45C834.105 403.439 833.87 403.496 833.698 403.621C833.528 403.744 833.439 403.922 833.43 404.154C833.423 404.34 833.495 404.5 833.646 404.636C833.8 404.769 834.064 404.897 834.438 405.018C834.814 405.139 835.107 405.269 835.315 405.406C835.525 405.542 835.678 405.698 835.774 405.873C835.871 406.048 835.916 406.252 835.907 406.484C835.893 406.853 835.737 407.145 835.44 407.357C835.143 407.567 834.754 407.663 834.271 407.644C833.958 407.632 833.667 407.562 833.4 407.432C833.134 407.3 832.93 407.127 832.79 406.913C832.652 406.698 832.588 406.458 832.598 406.193L833.203 406.216C833.192 406.492 833.285 406.714 833.481 406.883C833.68 407.049 833.949 407.139 834.29 407.153C834.608 407.165 834.853 407.109 835.028 406.986C835.202 406.863 835.293 406.69 835.302 406.467C835.311 406.243 835.239 406.068 835.087 405.94C834.935 405.811 834.655 405.679 834.249 405.544ZM836.636 407.673L836.812 403.11L838.1 403.16C838.497 403.175 838.845 403.277 839.143 403.464C839.441 403.651 839.667 403.91 839.819 404.24C839.974 404.57 840.044 404.946 840.03 405.366L840.019 405.657C840.002 406.087 839.904 406.461 839.724 406.779C839.547 407.096 839.3 407.335 838.984 407.497C838.67 407.658 838.309 407.733 837.899 407.722L836.636 407.673ZM837.395 403.629L837.257 407.204L837.89 407.229C838.354 407.247 838.72 407.116 838.988 406.838C839.258 406.56 839.403 406.154 839.424 405.621L839.434 405.355C839.454 404.837 839.347 404.43 839.114 404.135C838.883 403.837 838.544 403.677 838.097 403.656L837.395 403.629Z" fill="#71758E"/>
<path d="M845.344 408.009L844.26 407.967L844.462 402.734L842.843 403.219L842.879 402.301L845.457 401.463L845.596 401.469L845.344 408.009ZM852.244 402.353L849.41 408.166L848.269 408.122L851.088 402.577L847.717 402.447L847.75 401.574L852.267 401.749L852.244 402.353ZM857.312 405.723C857.275 406.66 857.072 407.361 856.701 407.825C856.334 408.286 855.792 408.502 855.076 408.475C854.371 408.447 853.849 408.196 853.509 407.719C853.172 407.24 853.016 406.545 853.042 405.634L853.086 404.506C853.122 403.569 853.324 402.873 853.691 402.418C854.061 401.963 854.606 401.749 855.325 401.777C856.039 401.805 856.561 402.054 856.893 402.524C857.227 402.994 857.381 403.684 857.355 404.595L857.312 405.723ZM856.271 404.463C856.294 403.852 856.228 403.401 856.072 403.111C855.916 402.818 855.656 402.664 855.292 402.65C854.937 402.636 854.67 402.762 854.493 403.027C854.315 403.289 854.211 403.707 854.18 404.279L854.123 405.757C854.099 406.366 854.167 406.823 854.325 407.128C854.484 407.433 854.745 407.592 855.109 407.606C855.459 407.62 855.722 407.492 855.9 407.224C856.078 406.953 856.182 406.524 856.214 405.936L856.271 404.463ZM859.029 407.39C859.232 407.398 859.386 407.462 859.492 407.583C859.598 407.7 859.648 407.846 859.641 408.019C859.635 408.189 859.574 408.328 859.459 408.438C859.344 408.544 859.186 408.593 858.983 408.585C858.789 408.578 858.637 408.516 858.528 408.402C858.419 408.287 858.368 408.143 858.374 407.97C858.381 407.797 858.442 407.656 858.556 407.546C858.671 407.434 858.829 407.382 859.029 407.39ZM865.249 408.778L860.866 408.609L860.895 407.861L863.158 405.577C863.485 405.24 863.718 404.957 863.859 404.729C864.002 404.499 864.078 404.266 864.087 404.03C864.099 403.719 864.021 403.465 863.852 403.268C863.686 403.07 863.456 402.965 863.16 402.954C862.808 402.94 862.531 403.037 862.329 403.245C862.126 403.452 862.018 403.742 862.004 404.115L860.916 404.073C860.931 403.676 861.035 403.323 861.226 403.014C861.42 402.701 861.688 402.464 862.029 402.301C862.373 402.137 862.764 402.064 863.203 402.081C863.836 402.106 864.328 402.285 864.68 402.618C865.035 402.949 865.201 403.394 865.18 403.955C865.167 404.281 865.061 404.619 864.862 404.97C864.667 405.318 864.351 405.711 863.916 406.148L862.256 407.792L865.283 407.909L865.249 408.778Z" fill="black" fill-opacity="0.87"/>
<path d="M705.368 411.091C705.293 411.571 705.1 411.937 704.789 412.189C704.48 412.438 704.077 412.553 703.58 412.534C703.041 412.513 702.616 412.303 702.305 411.904C701.996 411.505 701.854 410.982 701.879 410.334L701.896 409.896C701.913 409.472 702.002 409.102 702.165 408.786C702.33 408.47 702.555 408.232 702.839 408.071C703.124 407.908 703.449 407.834 703.814 407.848C704.299 407.867 704.683 408.018 704.964 408.301C705.247 408.581 705.402 408.962 705.432 409.442L704.827 409.419C704.789 409.053 704.685 408.786 704.516 408.616C704.349 408.446 704.109 408.356 703.795 408.343C703.411 408.329 703.104 408.459 702.873 408.735C702.645 409.01 702.521 409.41 702.501 409.935L702.484 410.377C702.464 410.872 702.553 411.27 702.748 411.57C702.944 411.87 703.227 412.028 703.599 412.042C703.933 412.055 704.192 411.99 704.376 411.846C704.561 411.701 704.691 411.441 704.764 411.067L705.368 411.091ZM706.79 412.595L706.21 412.573L706.396 407.76L706.976 407.782L706.79 412.595ZM709.24 412.753C708.78 412.735 708.412 412.57 708.136 412.258C707.859 411.944 707.731 411.534 707.75 411.029L707.754 410.922C707.767 410.586 707.842 410.289 707.98 410.03C708.12 409.77 708.307 409.57 708.543 409.431C708.781 409.289 709.034 409.224 709.304 409.234C709.745 409.251 710.082 409.409 710.315 409.709C710.548 410.009 710.654 410.43 710.633 410.971L710.624 411.212L708.327 411.123C708.322 411.458 708.409 411.732 708.587 411.946C708.767 412.158 709.001 412.27 709.29 412.281C709.494 412.289 709.669 412.254 709.815 412.176C709.96 412.097 710.089 411.991 710.2 411.858L710.544 412.147C710.243 412.573 709.808 412.775 709.24 412.753ZM709.285 409.71C709.051 409.701 708.852 409.779 708.686 409.945C708.521 410.108 708.414 410.342 708.364 410.648L710.063 410.713L710.064 410.669C710.059 410.374 709.988 410.143 709.853 409.977C709.717 409.809 709.528 409.72 709.285 409.71ZM713.447 412.852C713.416 412.784 713.393 412.664 713.379 412.492C713.099 412.762 712.771 412.889 712.397 412.875C712.063 412.862 711.792 412.757 711.584 412.561C711.378 412.362 711.281 412.118 711.292 411.828C711.306 411.475 711.45 411.206 711.725 411.022C712.002 410.836 712.384 410.753 712.871 410.771L713.435 410.793L713.445 410.527C713.453 410.324 713.399 410.161 713.282 410.037C713.166 409.911 712.989 409.844 712.753 409.835C712.547 409.827 712.371 409.872 712.227 409.971C712.083 410.07 712.008 410.194 712.003 410.342L711.42 410.32C711.426 410.151 711.492 409.99 711.617 409.838C711.744 409.684 711.912 409.565 712.121 409.481C712.331 409.397 712.559 409.36 712.806 409.369C713.197 409.384 713.499 409.494 713.713 409.699C713.927 409.902 714.031 410.175 714.026 410.518L713.966 412.078C713.954 412.39 713.984 412.639 714.056 412.826L714.054 412.876L713.447 412.852ZM712.502 412.373C712.683 412.38 712.857 412.34 713.024 412.252C713.191 412.165 713.313 412.047 713.392 411.899L713.419 411.204L712.965 411.186C712.255 411.159 711.891 411.353 711.875 411.769C711.868 411.95 711.923 412.095 712.041 412.202C712.158 412.309 712.311 412.366 712.502 412.373ZM715.638 409.541L715.64 409.968C715.912 409.652 716.257 409.502 716.675 409.519C717.391 409.546 717.737 409.964 717.712 410.773L717.626 413.014L717.046 412.991L717.132 410.748C717.14 410.503 717.09 410.32 716.984 410.199C716.88 410.078 716.712 410.013 716.48 410.004C716.292 409.997 716.125 410.04 715.979 410.135C715.833 410.23 715.717 410.357 715.632 410.517L715.538 412.933L714.959 412.911L715.09 409.52L715.638 409.541ZM723.072 411.112L721.095 411.036L721.032 412.653L723.329 412.741L723.31 413.233L720.412 413.121L720.588 408.559L723.455 408.669L723.436 409.164L721.17 409.077L721.114 410.544L723.091 410.62L723.072 411.112ZM724.762 409.894L724.765 410.32C725.036 410.005 725.381 409.855 725.799 409.871C726.516 409.898 726.861 410.317 726.836 411.125L726.75 413.366L726.17 413.344L726.257 411.1C726.264 410.855 726.215 410.673 726.108 410.551C726.004 410.43 725.836 410.365 725.604 410.356C725.416 410.349 725.249 410.393 725.104 410.487C724.958 410.582 724.842 410.709 724.756 410.869L724.663 413.285L724.083 413.263L724.214 409.872L724.762 409.894ZM729.143 413.521C728.684 413.503 728.316 413.339 728.039 413.027C727.762 412.713 727.634 412.303 727.653 411.797L727.657 411.691C727.67 411.354 727.746 411.057 727.883 410.799C728.023 410.538 728.211 410.338 728.446 410.199C728.684 410.058 728.938 409.992 729.207 410.002C729.648 410.019 729.985 410.178 730.218 410.478C730.451 410.777 730.557 411.198 730.537 411.739L730.527 411.98L728.23 411.892C728.226 412.226 728.312 412.501 728.49 412.715C728.67 412.926 728.905 413.038 729.193 413.049C729.398 413.057 729.573 413.022 729.718 412.944C729.863 412.866 729.992 412.76 730.104 412.626L730.447 412.916C730.146 413.341 729.712 413.543 729.143 413.521ZM729.189 410.479C728.955 410.47 728.755 410.548 728.59 410.713C728.424 410.876 728.317 411.11 728.267 411.416L729.966 411.482L729.968 411.438C729.962 411.143 729.892 410.912 729.756 410.745C729.62 410.577 729.431 410.488 729.189 410.479ZM733.006 410.733C732.919 410.715 732.824 410.704 732.722 410.7C732.342 410.685 732.077 410.837 731.929 411.156L731.836 413.562L731.257 413.54L731.387 410.149L731.951 410.171L731.946 410.563C732.148 410.268 732.423 410.127 732.772 410.14C732.885 410.144 732.97 410.162 733.027 410.194L733.006 410.733ZM733.412 411.897C733.432 411.369 733.571 410.953 733.827 410.652C734.084 410.348 734.414 410.203 734.817 410.219C735.23 410.235 735.548 410.394 735.768 410.695L735.811 410.32L736.34 410.341L736.213 413.65C736.196 414.088 736.052 414.429 735.781 414.672C735.512 414.915 735.158 415.028 734.72 415.011C734.475 415.001 734.238 414.94 734.008 414.826C733.778 414.713 733.605 414.563 733.489 414.376L733.803 414.04C734.04 414.357 734.338 414.522 734.697 414.536C734.979 414.547 735.202 414.476 735.364 414.323C735.529 414.17 735.617 413.95 735.628 413.662L735.64 413.37C735.398 413.629 735.076 413.75 734.675 413.735C734.278 413.719 733.962 413.547 733.728 413.218C733.496 412.889 733.391 412.449 733.412 411.897ZM733.992 411.985C733.977 412.368 734.044 412.672 734.192 412.897C734.341 413.12 734.556 413.237 734.838 413.248C735.203 413.262 735.478 413.107 735.662 412.781L735.722 411.233C735.557 410.902 735.297 410.73 734.942 410.717C734.66 410.706 734.435 410.807 734.268 411.02C734.101 411.233 734.009 411.555 733.992 411.985ZM738.344 412.963L739.231 410.452L739.852 410.476L738.338 414.337C738.105 414.893 737.759 415.162 737.299 415.145L737.19 415.131L736.975 415.082L736.993 414.612L737.149 414.631C737.346 414.638 737.5 414.604 737.612 414.529C737.725 414.454 737.822 414.312 737.901 414.104L738.043 413.764L736.963 410.365L737.596 410.389L738.344 412.963ZM744.814 411.951L742.836 411.875L742.774 413.492L745.071 413.581L745.052 414.073L742.153 413.961L742.329 409.398L745.197 409.509L745.178 410.004L742.912 409.916L742.855 411.383L744.833 411.459L744.814 411.951ZM749.288 410.163L747.821 410.106L747.664 414.173L747.065 414.15L747.222 410.083L745.759 410.026L745.778 409.531L749.307 409.667L749.288 410.163ZM752.516 412.343L750.601 412.269L750.524 414.284L749.922 414.261L750.098 409.698L752.925 409.807L752.906 410.302L750.681 410.216L750.62 411.777L752.535 411.851L752.516 412.343Z" fill="#71758E"/>
<path d="M820.094 409.964C815.051 409.77 815.076 407.111 813.778 407.061C811.867 406.987 812.119 397.95 810.231 397.877C808.342 397.804 808.052 406.745 805.072 406.63C802.093 406.515 802.478 410.202 800.117 410.111C797.756 410.02 796.592 406.302 794.07 406.205C791.549 406.108 788.923 416.106 786.346 416.007C782.679 415.865 783.585 403.046 780.424 402.924C777.264 402.802 777.54 412.224 771.352 411.985C767.226 411.826 766.883 408.828 764.132 408.722" stroke="#F44336" stroke-width="1.37626" stroke-linecap="round"/>
<rect x="842.521" y="411.749" width="22.9376" height="9.17505" rx="4.58753" transform="rotate(2.21098 842.521 411.749)" fill="#F44336" fill-opacity="0.1"/>
<path d="M846.47 417.363L845.16 417.312L845.175 416.907L846.486 416.957L846.47 417.363ZM849.549 417.272C849.527 417.854 849.411 418.283 849.201 418.558C848.991 418.833 848.675 418.963 848.253 418.946C847.835 418.93 847.532 418.78 847.342 418.497C847.152 418.212 847.064 417.794 847.078 417.244L847.104 416.58C847.126 416.006 847.242 415.582 847.451 415.311C847.661 415.039 847.978 414.911 848.402 414.928C848.823 414.944 849.128 415.091 849.316 415.369C849.504 415.646 849.59 416.065 849.574 416.627L849.549 417.272ZM849.079 416.573C849.095 416.152 849.048 415.844 848.937 415.648C848.826 415.45 848.643 415.346 848.387 415.336C848.132 415.326 847.943 415.415 847.819 415.602C847.696 415.789 847.624 416.081 847.605 416.479L847.575 417.274C847.558 417.696 847.607 418.011 847.721 418.218C847.837 418.424 848.019 418.531 848.268 418.541C848.514 418.55 848.699 418.462 848.824 418.277C848.952 418.092 849.026 417.795 849.047 417.387L849.079 416.573ZM850.377 418.714C850.38 418.628 850.408 418.557 850.46 418.502C850.514 418.446 850.592 418.421 850.694 418.425C850.797 418.428 850.872 418.46 850.922 418.519C850.974 418.579 850.998 418.651 850.994 418.737C850.991 418.82 850.962 418.888 850.906 418.941C850.852 418.995 850.774 419.019 850.672 419.015C850.57 419.011 850.494 418.981 850.444 418.923C850.396 418.866 850.373 418.796 850.377 418.714ZM854.455 417.461C854.433 418.043 854.317 418.472 854.107 418.747C853.897 419.023 853.581 419.152 853.159 419.136C852.741 419.12 852.438 418.97 852.248 418.686C852.058 418.401 851.97 417.983 851.984 417.433L852.01 416.77C852.032 416.195 852.148 415.772 852.358 415.5C852.567 415.228 852.884 415.101 853.308 415.117C853.729 415.133 854.034 415.281 854.222 415.559C854.411 415.835 854.497 416.254 854.48 416.817L854.455 417.461ZM853.985 416.763C854.001 416.342 853.954 416.033 853.843 415.837C853.732 415.639 853.549 415.535 853.293 415.525C853.038 415.516 852.849 415.604 852.726 415.791C852.602 415.979 852.53 416.271 852.511 416.668L852.481 417.463C852.464 417.886 852.513 418.201 852.627 418.408C852.743 418.613 852.925 418.72 853.174 418.73C853.42 418.74 853.605 418.652 853.731 418.466C853.858 418.281 853.932 417.985 853.953 417.577L853.985 416.763ZM857.359 417.929L857.902 417.95L857.886 418.355L857.344 418.334L857.309 419.242L856.809 419.223L856.844 418.315L855.063 418.246L855.075 417.953L856.93 415.311L857.46 415.331L857.359 417.929ZM855.643 417.862L856.86 417.909L856.934 415.992L856.871 416.097L855.643 417.862ZM858.562 416.127C858.571 415.892 858.653 415.702 858.807 415.555C858.964 415.409 859.159 415.34 859.394 415.349C859.632 415.359 859.821 415.443 859.962 415.603C860.105 415.761 860.172 415.961 860.162 416.205L860.155 416.396C860.146 416.632 860.063 416.823 859.907 416.967C859.753 417.11 859.56 417.177 859.329 417.168C859.096 417.159 858.906 417.077 858.76 416.923C858.614 416.767 858.545 416.564 858.555 416.315L858.562 416.127ZM858.925 416.348C858.919 416.488 858.954 416.605 859.03 416.699C859.105 416.792 859.209 416.841 859.341 416.846C859.468 416.851 859.572 416.811 859.653 416.726C859.735 416.641 859.779 416.523 859.785 416.371L859.792 416.175C859.798 416.035 859.764 415.918 859.69 415.824C859.617 415.729 859.514 415.68 859.381 415.674C859.249 415.669 859.142 415.711 859.062 415.799C858.981 415.888 858.938 416.005 858.932 416.152L858.925 416.348ZM860.382 418.4C860.391 418.166 860.472 417.976 860.627 417.832C860.783 417.685 860.979 417.616 861.213 417.625C861.448 417.635 861.637 417.717 861.782 417.873C861.926 418.03 861.994 418.232 861.984 418.481L861.977 418.672C861.968 418.906 861.885 419.097 861.729 419.243C861.575 419.388 861.381 419.456 861.148 419.447C860.915 419.438 860.726 419.356 860.579 419.202C860.433 419.045 860.364 418.843 860.374 418.594L860.382 418.4ZM860.744 418.624C860.739 418.766 860.774 418.884 860.849 418.978C860.924 419.071 861.028 419.119 861.161 419.124C861.29 419.129 861.394 419.09 861.475 419.005C861.555 418.918 861.598 418.799 861.604 418.647L861.612 418.448C861.617 418.306 861.582 418.189 861.507 418.097C861.433 418.004 861.331 417.956 861.201 417.95C861.073 417.946 860.968 417.986 860.884 418.073C860.802 418.157 860.758 418.275 860.752 418.425L860.744 418.624ZM859.37 419.026L859.095 418.838L861.123 415.855L861.398 416.043L859.37 419.026Z" fill="#F44336"/>
</g>
<g filter="url(#filter10_d)">
<rect x="633" y="339.725" width="216.99" height="45.4165" rx="11.0101" transform="rotate(-4.68548 633 339.725)" fill="white"/>
<rect x="644.872" y="349.799" width="22.0201" height="22.0201" rx="7.34004" transform="rotate(-4.68548 644.872 349.799)" fill="#E6EEF5"/>
<path d="M654.356 360.403L653.021 360.512L653.103 361.512L654.664 361.384L654.701 361.835L652.576 362.009L652.309 358.759L654.419 358.586L654.456 359.041L652.911 359.168L652.985 360.065L654.32 359.956L654.356 360.403ZM658.011 358.75L656.997 358.833L657.226 361.628L656.666 361.674L656.437 358.879L655.432 358.961L655.395 358.506L657.973 358.295L658.011 358.75ZM661.115 359.923L659.806 360.03L659.919 361.408L659.354 361.454L659.088 358.203L661.153 358.034L661.19 358.489L659.69 358.612L659.769 359.579L661.078 359.472L661.115 359.923Z" fill="#71758E"/>
<path d="M678.866 355.278C678.842 354.992 678.723 354.78 678.508 354.642C678.296 354.503 677.921 354.377 677.384 354.262C676.848 354.147 676.416 354.006 676.091 353.838C675.468 353.514 675.132 353.053 675.083 352.455C675.04 351.931 675.218 351.482 675.616 351.108C676.016 350.733 676.558 350.518 677.239 350.462C677.692 350.425 678.102 350.475 678.47 350.613C678.838 350.751 679.136 350.966 679.363 351.259C679.591 351.549 679.72 351.881 679.751 352.257L678.626 352.349C678.598 352.009 678.469 351.753 678.239 351.58C678.012 351.404 677.7 351.332 677.304 351.365C676.935 351.395 676.654 351.497 676.462 351.672C676.272 351.846 676.189 352.075 676.212 352.358C676.232 352.596 676.358 352.786 676.592 352.929C676.825 353.069 677.201 353.194 677.719 353.304C678.238 353.411 678.658 353.549 678.98 353.718C679.303 353.883 679.546 354.085 679.709 354.323C679.872 354.559 679.967 354.843 679.995 355.176C680.039 355.718 679.866 356.167 679.476 356.522C679.088 356.875 678.538 357.08 677.827 357.138C677.357 357.177 676.916 357.126 676.506 356.986C676.099 356.843 675.773 356.627 675.527 356.338C675.285 356.049 675.147 355.701 675.114 355.293L676.243 355.201C676.273 355.57 676.419 355.845 676.68 356.028C676.94 356.21 677.298 356.283 677.754 356.245C678.147 356.213 678.435 356.11 678.618 355.936C678.805 355.759 678.887 355.54 678.866 355.278ZM685.431 350.798L683.404 350.964L683.862 356.554L682.742 356.646L682.284 351.056L680.274 351.22L680.2 350.309L685.357 349.887L685.431 350.798ZM691.626 352.816C691.678 353.453 691.614 354.022 691.433 354.522C691.252 355.019 690.967 355.414 690.578 355.707C690.191 355.996 689.731 356.163 689.198 356.207C688.671 356.25 688.19 356.16 687.756 355.938C687.324 355.713 686.975 355.371 686.71 354.914C686.448 354.456 686.289 353.916 686.235 353.294L686.205 352.928C686.153 352.294 686.219 351.725 686.403 351.221C686.589 350.718 686.876 350.321 687.263 350.032C687.652 349.739 688.112 349.571 688.642 349.528C689.172 349.484 689.651 349.574 690.08 349.796C690.511 350.016 690.858 350.356 691.121 350.817C691.383 351.275 691.542 351.821 691.597 352.454L691.626 352.816ZM690.469 352.569C690.41 351.849 690.228 351.308 689.922 350.946C689.62 350.585 689.219 350.424 688.719 350.465C688.23 350.505 687.864 350.729 687.618 351.135C687.376 351.539 687.28 352.09 687.331 352.79L687.362 353.166C687.421 353.88 687.604 354.421 687.913 354.788C688.225 355.155 688.628 355.318 689.122 355.278C689.622 355.237 689.99 355.015 690.227 354.612C690.467 354.209 690.557 353.641 690.497 352.909L690.469 352.569ZM697.86 353.276C697.851 353.975 697.64 354.538 697.225 354.964C696.81 355.388 696.232 355.63 695.491 355.691C694.973 355.733 694.506 355.649 694.09 355.437C693.677 355.222 693.345 354.897 693.093 354.462C692.842 354.027 692.687 353.511 692.629 352.914L692.58 352.306C692.529 351.693 692.594 351.144 692.773 350.659C692.952 350.174 693.233 349.788 693.617 349.502C694.004 349.215 694.464 349.05 694.997 349.007C695.714 348.948 696.308 349.096 696.777 349.45C697.247 349.804 697.547 350.334 697.676 351.039L696.551 351.131C696.459 350.668 696.295 350.343 696.058 350.156C695.823 349.965 695.495 349.887 695.072 349.922C694.581 349.962 694.218 350.173 693.982 350.555C693.75 350.934 693.659 351.47 693.71 352.164L693.757 352.74C693.814 353.443 693.983 353.968 694.264 354.317C694.547 354.665 694.931 354.82 695.416 354.78C695.86 354.744 696.185 354.616 696.392 354.399C696.599 354.181 696.713 353.838 696.735 353.368L697.86 353.276ZM700.752 352.342L700.079 353.184L700.245 355.211L699.115 355.304L698.583 348.803L699.712 348.71L699.962 351.76L700.524 350.936L702.239 348.503L703.606 348.391L701.426 351.469L704.277 354.881L702.937 354.991L700.752 352.342Z" fill="black" fill-opacity="0.87"/>
<path d="M805.927 341.048L806.181 344.142C806.214 344.571 806.107 344.934 805.861 345.229C805.616 345.523 805.266 345.706 804.811 345.777L804.652 345.796C804.154 345.837 803.746 345.735 803.428 345.491C803.11 345.246 802.93 344.889 802.887 344.418L802.633 341.318L803.226 341.269L803.479 344.351C803.506 344.68 803.618 344.929 803.814 345.097C804.01 345.264 804.276 345.333 804.611 345.306C804.951 345.278 805.203 345.166 805.367 344.97C805.534 344.774 805.604 344.511 805.577 344.182L805.324 341.097L805.927 341.048ZM808.422 343.382C807.895 343.277 807.505 343.126 807.252 342.931C807.001 342.733 806.862 342.476 806.836 342.159C806.807 341.801 806.925 341.493 807.192 341.237C807.46 340.978 807.823 340.829 808.282 340.792C808.594 340.766 808.877 340.804 809.131 340.905C809.387 341.005 809.59 341.157 809.741 341.358C809.894 341.56 809.98 341.786 810.001 342.038L809.398 342.088C809.375 341.813 809.27 341.604 809.082 341.462C808.894 341.318 808.641 341.259 808.322 341.286C808.026 341.31 807.8 341.394 807.644 341.539C807.49 341.682 807.423 341.869 807.442 342.1C807.457 342.286 807.548 342.437 807.715 342.553C807.884 342.667 808.161 342.762 808.547 342.837C808.935 342.913 809.24 343.006 809.463 343.118C809.688 343.227 809.859 343.363 809.975 343.526C810.093 343.688 810.162 343.885 810.181 344.116C810.211 344.485 810.092 344.793 809.822 345.039C809.553 345.284 809.177 345.426 808.696 345.465C808.384 345.491 808.087 345.455 807.806 345.359C807.526 345.26 807.303 345.112 807.138 344.916C806.975 344.72 806.882 344.489 806.861 344.225L807.464 344.175C807.486 344.45 807.605 344.66 807.821 344.804C808.038 344.945 808.316 345.002 808.656 344.974C808.973 344.948 809.21 344.864 809.368 344.721C809.526 344.578 809.596 344.395 809.578 344.172C809.56 343.949 809.468 343.783 809.301 343.675C809.135 343.565 808.842 343.468 808.422 343.382ZM811.048 345.209L810.675 340.659L811.959 340.553C812.355 340.521 812.712 340.58 813.031 340.73C813.349 340.88 813.604 341.11 813.795 341.419C813.989 341.728 814.103 342.092 814.14 342.511L814.164 342.802C814.199 343.231 814.146 343.614 814.006 343.951C813.868 344.287 813.652 344.554 813.357 344.753C813.065 344.951 812.715 345.068 812.307 345.106L811.048 345.209ZM811.315 341.103L811.607 344.669L812.239 344.618C812.701 344.58 813.049 344.407 813.282 344.098C813.517 343.789 813.612 343.369 813.569 342.838L813.547 342.572C813.505 342.055 813.35 341.664 813.083 341.399C812.817 341.131 812.462 341.013 812.015 341.046L811.315 341.103Z" fill="#71758E"/>
<path d="M819.733 344.498L818.652 344.586L818.224 339.366L816.675 340.042L816.6 339.127L819.059 337.985L819.198 337.974L819.733 344.498ZM825.904 338.054L823.788 344.165L822.65 344.258L824.783 338.415L821.42 338.691L821.349 337.82L825.854 337.451L825.904 338.054ZM831.339 340.791C831.416 341.725 831.298 342.445 830.986 342.95C830.676 343.452 830.164 343.732 829.45 343.791C828.748 343.849 828.199 343.661 827.804 343.229C827.411 342.794 827.174 342.123 827.09 341.215L826.998 340.09C826.922 339.156 827.038 338.44 827.348 337.944C827.661 337.448 828.176 337.171 828.894 337.112C829.605 337.054 830.154 337.238 830.539 337.665C830.928 338.092 831.164 338.758 831.247 339.666L831.339 340.791ZM830.155 339.665C830.105 339.055 829.985 338.615 829.795 338.346C829.605 338.074 829.328 337.953 828.965 337.983C828.611 338.012 828.361 338.169 828.217 338.453C828.072 338.735 828.019 339.162 828.057 339.734L828.177 341.207C828.227 341.815 828.349 342.26 828.543 342.544C828.737 342.828 829.016 342.955 829.379 342.925C829.727 342.896 829.974 342.738 830.118 342.451C830.262 342.16 830.314 341.721 830.275 341.134L830.155 339.665ZM833.244 342.239C833.447 342.223 833.608 342.268 833.727 342.375C833.847 342.479 833.913 342.618 833.928 342.79C833.942 342.96 833.898 343.106 833.797 343.228C833.696 343.347 833.544 343.415 833.342 343.432C833.148 343.447 832.991 343.405 832.868 343.304C832.746 343.203 832.678 343.066 832.664 342.894C832.65 342.721 832.693 342.574 832.794 342.452C832.895 342.326 833.045 342.256 833.244 342.239ZM839.586 342.87L835.215 343.229L835.154 342.483L837.126 339.943C837.41 339.57 837.608 339.261 837.72 339.018C837.834 338.772 837.882 338.531 837.863 338.296C837.837 337.987 837.729 337.744 837.538 337.568C837.349 337.391 837.108 337.315 836.813 337.339C836.462 337.368 836.198 337.498 836.023 337.728C835.847 337.958 835.774 338.259 835.804 338.631L834.719 338.72C834.687 338.324 834.747 337.961 834.9 337.631C835.055 337.298 835.293 337.03 835.612 336.827C835.934 336.623 836.313 336.504 836.751 336.468C837.382 336.416 837.892 336.535 838.281 336.824C838.673 337.109 838.892 337.532 838.938 338.091C838.965 338.416 838.9 338.764 838.745 339.136C838.593 339.506 838.326 339.933 837.947 340.42L836.497 342.252L839.515 342.004L839.586 342.87Z" fill="black" fill-opacity="0.87"/>
<path d="M676.852 366.169L676.252 366.218L675.879 361.668L676.479 361.618L676.852 366.169ZM678.246 362.65L678.3 363.074C678.531 362.728 678.855 362.537 679.272 362.503C679.987 362.445 680.38 362.818 680.453 363.624L680.636 365.859L680.058 365.906L679.874 363.669C679.852 363.425 679.781 363.249 679.661 363.142C679.543 363.034 679.369 362.989 679.137 363.008C678.95 363.024 678.789 363.087 678.656 363.199C678.522 363.31 678.423 363.451 678.357 363.62L678.554 366.03L677.976 366.077L677.699 362.695L678.246 362.65ZM682.674 364.902L683.299 362.236L683.889 362.188L682.954 365.669L682.513 365.705L681.011 362.424L681.601 362.375L682.674 364.902ZM686.202 365.466C685.743 365.503 685.358 365.384 685.046 365.107C684.734 364.829 684.557 364.437 684.516 363.933L684.507 363.827C684.479 363.491 684.518 363.187 684.624 362.914C684.731 362.639 684.894 362.418 685.111 362.251C685.33 362.082 685.574 361.987 685.843 361.965C686.282 361.929 686.636 362.046 686.903 362.315C687.171 362.585 687.327 362.99 687.371 363.529L687.391 363.77L685.1 363.958C685.135 364.29 685.254 364.552 685.457 364.743C685.661 364.932 685.907 365.015 686.194 364.991C686.399 364.975 686.568 364.919 686.703 364.824C686.838 364.729 686.953 364.608 687.048 364.462L687.423 364.708C687.176 365.167 686.769 365.419 686.202 365.466ZM685.881 362.44C685.648 362.459 685.459 362.561 685.315 362.744C685.17 362.926 685.092 363.172 685.079 363.481L686.773 363.342L686.77 363.298C686.729 363.006 686.631 362.785 686.477 362.637C686.322 362.486 686.123 362.42 685.881 362.44ZM690.198 364.172C690.185 364.016 690.115 363.9 689.99 363.824C689.866 363.746 689.654 363.688 689.355 363.65C689.059 363.611 688.82 363.555 688.64 363.482C688.462 363.408 688.326 363.315 688.233 363.201C688.142 363.086 688.09 362.946 688.076 362.779C688.053 362.502 688.151 362.258 688.368 362.047C688.588 361.836 688.88 361.716 689.245 361.686C689.628 361.655 689.947 361.728 690.201 361.907C690.456 362.085 690.597 362.328 690.622 362.637L690.041 362.684C690.028 362.526 689.949 362.395 689.804 362.291C689.661 362.188 689.488 362.144 689.284 362.161C689.073 362.178 688.912 362.238 688.801 362.339C688.69 362.44 688.64 362.565 688.653 362.713C688.664 362.853 688.728 362.953 688.844 363.015C688.96 363.077 689.165 363.128 689.458 363.169C689.753 363.21 689.993 363.268 690.18 363.343C690.366 363.418 690.508 363.515 690.603 363.636C690.701 363.753 690.758 363.903 690.772 364.084C690.797 364.386 690.696 364.639 690.47 364.842C690.243 365.043 689.937 365.16 689.551 365.191C689.28 365.213 689.037 365.185 688.82 365.106C688.604 365.028 688.43 364.908 688.297 364.747C688.166 364.583 688.092 364.401 688.076 364.201L688.654 364.154C688.681 364.347 688.77 364.495 688.923 364.598C689.079 364.698 689.275 364.739 689.512 364.719C689.731 364.701 689.903 364.643 690.027 364.545C690.153 364.444 690.21 364.32 690.198 364.172ZM693.04 364.43C693.246 364.413 693.421 364.336 693.565 364.198C693.709 364.061 693.782 363.897 693.783 363.709L694.33 363.664C694.335 363.858 694.284 364.048 694.175 364.233C694.067 364.418 693.913 364.572 693.716 364.693C693.52 364.814 693.308 364.883 693.078 364.902C692.618 364.94 692.239 364.817 691.941 364.533C691.644 364.247 691.474 363.837 691.431 363.303L691.423 363.207C691.396 362.877 691.432 362.58 691.532 362.313C691.632 362.047 691.789 361.834 692.002 361.674C692.218 361.514 692.479 361.421 692.788 361.396C693.167 361.364 693.491 361.452 693.76 361.659C694.03 361.865 694.189 362.149 694.235 362.51L693.688 362.555C693.654 362.338 693.556 362.165 693.394 362.038C693.235 361.909 693.046 361.853 692.827 361.871C692.533 361.895 692.314 362.02 692.168 362.246C692.025 362.469 691.97 362.781 692.003 363.181L692.012 363.29C692.044 363.68 692.149 363.974 692.326 364.171C692.504 364.368 692.742 364.455 693.04 364.43ZM694.887 362.957C694.86 362.626 694.9 362.323 695.008 362.047C695.117 361.772 695.282 361.553 695.502 361.39C695.723 361.227 695.983 361.134 696.281 361.109C696.741 361.072 697.126 361.2 697.436 361.496C697.747 361.791 697.925 362.204 697.968 362.733L697.972 362.774C697.999 363.103 697.959 363.404 697.854 363.677C697.75 363.948 697.586 364.166 697.363 364.331C697.142 364.496 696.879 364.591 696.575 364.616C696.116 364.653 695.731 364.524 695.42 364.229C695.11 363.933 694.934 363.523 694.891 362.998L694.887 362.957ZM695.474 362.978C695.505 363.353 695.616 363.647 695.808 363.86C696.001 364.073 696.244 364.168 696.536 364.144C696.83 364.12 697.054 363.986 697.208 363.742C697.362 363.497 697.422 363.167 697.388 362.752C697.357 362.381 697.244 362.089 697.048 361.874C696.854 361.657 696.612 361.56 696.32 361.584C696.034 361.608 695.813 361.74 695.657 361.982C695.501 362.223 695.44 362.555 695.474 362.978ZM701.603 362.696L701.74 363.289L701.824 362.738L702.464 359.489L702.97 359.447L704.108 362.551L704.279 363.091L704.325 362.47L704.776 359.299L705.38 359.25L704.649 363.891L704.102 363.936L702.893 360.696L702.793 360.355L702.749 360.708L702.049 364.104L701.502 364.149L700.029 359.688L700.629 359.639L701.603 362.696ZM707.073 363.692L706.495 363.74L706.218 360.358L706.796 360.31L707.073 363.692ZM706.098 359.465C706.09 359.371 706.112 359.289 706.163 359.22C706.216 359.151 706.298 359.111 706.411 359.102C706.523 359.093 706.611 359.118 706.675 359.178C706.739 359.238 706.774 359.315 706.782 359.408C706.79 359.502 706.767 359.583 706.714 359.65C706.661 359.717 706.578 359.756 706.465 359.765C706.353 359.774 706.265 359.75 706.201 359.692C706.14 359.634 706.105 359.558 706.098 359.465ZM708.744 363.555L708.166 363.603L707.773 358.802L708.351 358.754L708.744 363.555ZM709.505 361.762C709.463 361.243 709.552 360.817 709.772 360.482C709.992 360.145 710.3 359.96 710.698 359.928C711.094 359.895 711.419 360.005 711.673 360.257L711.528 358.494L712.106 358.447L712.5 363.247L711.968 363.291L711.911 362.931C711.703 363.233 711.392 363.401 710.98 363.435C710.588 363.467 710.255 363.333 709.981 363.032C709.708 362.732 709.551 362.323 709.509 361.806L709.505 361.762ZM710.089 361.781C710.12 362.164 710.224 362.458 710.4 362.661C710.576 362.865 710.804 362.955 711.083 362.932C711.45 362.902 711.704 362.716 711.846 362.373L711.719 360.819C711.52 360.515 711.241 360.377 710.882 360.407C710.599 360.43 710.387 360.557 710.247 360.789C710.106 361.021 710.054 361.351 710.089 361.781ZM714.923 363.112C714.464 363.149 714.079 363.03 713.767 362.753C713.455 362.475 713.278 362.083 713.236 361.579L713.228 361.473C713.2 361.137 713.239 360.833 713.345 360.56C713.452 360.285 713.615 360.064 713.832 359.897C714.051 359.728 714.295 359.633 714.563 359.611C715.003 359.575 715.357 359.692 715.624 359.961C715.892 360.231 716.048 360.636 716.092 361.175L716.112 361.416L713.821 361.604C713.856 361.936 713.975 362.198 714.178 362.389C714.382 362.578 714.628 362.661 714.915 362.637C715.119 362.621 715.289 362.565 715.424 362.47C715.559 362.375 715.674 362.254 715.769 362.108L716.144 362.354C715.897 362.813 715.489 363.065 714.923 363.112ZM714.602 360.086C714.369 360.105 714.18 360.207 714.036 360.39C713.891 360.572 713.813 360.818 713.8 361.127L715.494 360.988L715.491 360.944C715.45 360.652 715.352 360.431 715.197 360.283C715.042 360.132 714.844 360.066 714.602 360.086ZM718.423 359.88C718.334 359.872 718.239 359.873 718.137 359.881C717.757 359.912 717.513 360.095 717.404 360.429L717.601 362.829L717.023 362.877L716.746 359.495L717.308 359.449L717.35 359.839C717.515 359.521 717.771 359.348 718.119 359.319C718.231 359.31 718.318 359.318 718.379 359.342L718.423 359.88ZM722.894 362.396L722.291 362.445L722.119 360.341L719.825 360.53L719.997 362.633L719.397 362.682L719.024 358.131L719.624 358.082L719.784 360.039L722.079 359.851L721.918 357.894L722.521 357.845L722.894 362.396ZM724.612 362.255L724.034 362.302L723.757 358.92L724.335 358.873L724.612 362.255ZM723.636 358.027C723.629 357.933 723.65 357.852 723.701 357.783C723.754 357.713 723.837 357.674 723.95 357.665C724.062 357.656 724.15 357.681 724.214 357.741C724.277 357.8 724.313 357.877 724.321 357.971C724.328 358.065 724.306 358.145 724.252 358.213C724.199 358.28 724.116 358.318 724.004 358.327C723.891 358.337 723.803 358.312 723.74 358.255C723.678 358.197 723.644 358.121 723.636 358.027ZM726.283 362.118L725.705 362.165L725.311 357.364L725.889 357.317L726.283 362.118ZM727.954 361.981L727.375 362.028L726.982 357.227L727.56 357.18L727.954 361.981Z" fill="#71758E"/>
<path d="M794.901 349.471C789.871 349.883 789.577 347.241 788.283 347.347C786.376 347.503 785.542 338.5 783.658 338.655C781.774 338.809 782.56 347.72 779.588 347.964C776.616 348.207 777.442 351.822 775.087 352.015C772.732 352.208 771.129 348.657 768.615 348.863C766.1 349.069 764.693 359.311 762.123 359.522C758.466 359.821 757.826 346.986 754.673 347.244C751.521 347.503 752.927 356.823 746.754 357.329C742.639 357.666 741.938 354.732 739.195 354.957" stroke="#18AB1E" stroke-width="1.37626" stroke-linecap="round"/>
<rect x="817.379" y="348.548" width="24.3139" height="9.17505" rx="4.58753" transform="rotate(-4.68548 817.379 348.548)" fill="#18AB1E" fill-opacity="0.1"/>
<path d="M822.311 352.978L823.399 352.889L823.437 353.358L822.349 353.447L822.45 354.679L821.952 354.72L821.851 353.488L820.763 353.577L820.725 353.108L821.813 353.019L821.719 351.881L822.218 351.84L822.311 352.978ZM824.848 352.671L825.221 352.64C825.455 352.617 825.633 352.541 825.758 352.41C825.882 352.279 825.935 352.112 825.919 351.909C825.881 351.451 825.635 351.241 825.179 351.279C824.965 351.296 824.799 351.372 824.68 351.506C824.563 351.638 824.513 351.804 824.53 352.006L824.034 352.047C824.009 351.738 824.1 351.472 824.309 351.25C824.519 351.026 824.798 350.9 825.146 350.872C825.514 350.841 825.81 350.915 826.035 351.093C826.26 351.27 826.387 351.532 826.415 351.879C826.429 352.048 826.387 352.217 826.29 352.385C826.194 352.553 826.054 352.684 825.871 352.778C826.091 352.828 826.266 352.927 826.395 353.075C826.525 353.223 826.6 353.41 826.619 353.637C826.647 353.987 826.556 354.274 826.344 354.498C826.132 354.722 825.843 354.849 825.477 354.879C825.111 354.909 824.805 354.834 824.558 354.655C824.313 354.476 824.177 354.223 824.151 353.898L824.649 353.857C824.666 354.063 824.746 354.222 824.89 354.334C825.034 354.446 825.219 354.493 825.444 354.475C825.683 354.455 825.861 354.377 825.978 354.242C826.094 354.107 826.143 353.922 826.124 353.688C826.105 353.461 826.021 353.293 825.872 353.183C825.723 353.073 825.517 353.027 825.254 353.045L824.882 353.075L824.848 352.671ZM827.612 354.389C827.605 354.303 827.624 354.229 827.669 354.168C827.716 354.107 827.791 354.072 827.892 354.064C827.994 354.055 828.073 354.077 828.13 354.13C828.188 354.183 828.221 354.252 828.228 354.338C828.234 354.42 828.213 354.491 828.164 354.551C828.117 354.611 828.042 354.645 827.941 354.653C827.839 354.661 827.76 354.64 827.703 354.589C827.649 354.537 827.618 354.471 827.612 354.389ZM830.96 352.65C830.866 352.781 830.75 352.891 830.612 352.978C830.475 353.064 830.321 353.115 830.149 353.129C829.924 353.147 829.723 353.108 829.546 353.011C829.371 352.914 829.23 352.769 829.122 352.576C829.015 352.382 828.951 352.163 828.931 351.921C828.91 351.66 828.94 351.421 829.021 351.204C829.104 350.987 829.232 350.815 829.405 350.69C829.578 350.564 829.786 350.491 830.029 350.471C830.414 350.44 830.73 350.559 830.975 350.831C831.222 351.1 831.366 351.484 831.407 351.982L831.418 352.127C831.481 352.886 831.376 353.453 831.105 353.827C830.833 354.2 830.395 354.416 829.79 354.474L829.694 354.482L829.66 354.064L829.764 354.056C830.173 354.015 830.478 353.883 830.681 353.66C830.884 353.434 830.977 353.098 830.96 352.65ZM830.196 352.712C830.362 352.699 830.511 352.635 830.642 352.522C830.774 352.409 830.867 352.274 830.919 352.119L830.903 351.921C830.876 351.596 830.784 351.337 830.626 351.145C830.468 350.953 830.281 350.866 830.065 350.884C829.847 350.902 829.679 351 829.561 351.179C829.442 351.355 829.394 351.581 829.416 351.854C829.438 352.12 829.52 352.334 829.661 352.497C829.803 352.658 829.982 352.73 830.196 352.712ZM834.594 351.176C834.61 351.371 834.572 351.548 834.481 351.708C834.392 351.869 834.263 351.999 834.095 352.099C834.306 352.17 834.477 352.284 834.609 352.442C834.742 352.6 834.817 352.786 834.835 352.998C834.863 353.336 834.77 353.614 834.558 353.833C834.348 354.051 834.057 354.176 833.685 354.206C833.31 354.237 833.001 354.162 832.758 353.98C832.516 353.797 832.382 353.537 832.354 353.202C832.337 352.991 832.378 352.796 832.479 352.617C832.581 352.438 832.73 352.296 832.927 352.192C832.746 352.12 832.6 352.013 832.488 351.869C832.375 351.726 832.311 351.557 832.295 351.364C832.268 351.036 832.352 350.766 832.547 350.556C832.742 350.346 833.012 350.227 833.357 350.199C833.7 350.17 833.984 350.244 834.211 350.42C834.439 350.595 834.567 350.847 834.594 351.176ZM834.338 353.028C834.321 352.81 834.236 352.638 834.086 352.512C833.937 352.386 833.751 352.332 833.528 352.35C833.304 352.369 833.13 352.451 833.006 352.598C832.883 352.745 832.831 352.929 832.849 353.15C832.867 353.372 832.946 353.541 833.087 353.657C833.23 353.773 833.418 353.821 833.652 353.802C833.884 353.783 834.061 353.704 834.183 353.567C834.305 353.427 834.356 353.248 834.338 353.028ZM833.39 350.606C833.195 350.622 833.042 350.695 832.931 350.827C832.821 350.956 832.775 351.125 832.792 351.332C832.808 351.53 832.88 351.686 833.008 351.8C833.137 351.911 833.301 351.959 833.5 351.943C833.698 351.926 833.851 351.853 833.959 351.722C834.068 351.589 834.115 351.423 834.099 351.225C834.083 351.026 834.008 350.87 833.874 350.755C833.741 350.64 833.579 350.59 833.39 350.606ZM835.427 350.838C835.408 350.604 835.466 350.405 835.602 350.241C835.74 350.077 835.926 349.985 836.159 349.966C836.397 349.947 836.595 350.008 836.754 350.149C836.915 350.289 837.005 350.48 837.025 350.723L837.041 350.913C837.06 351.149 837.001 351.348 836.863 351.511C836.727 351.671 836.544 351.761 836.313 351.779C836.081 351.798 835.883 351.74 835.719 351.604C835.555 351.467 835.463 351.274 835.443 351.026L835.427 350.838ZM835.814 351.014C835.825 351.153 835.874 351.265 835.96 351.35C836.046 351.433 836.155 351.469 836.287 351.458C836.414 351.448 836.512 351.395 836.582 351.302C836.653 351.208 836.683 351.085 836.67 350.933L836.654 350.737C836.643 350.598 836.595 350.486 836.511 350.401C836.426 350.316 836.318 350.279 836.186 350.29C836.054 350.301 835.953 350.355 835.884 350.453C835.814 350.55 835.786 350.672 835.798 350.818L835.814 351.014ZM837.506 352.876C837.487 352.642 837.546 352.444 837.682 352.282C837.819 352.118 838.005 352.026 838.239 352.007C838.473 351.988 838.671 352.047 838.833 352.185C838.996 352.323 839.087 352.516 839.107 352.764L839.123 352.954C839.142 353.188 839.083 353.387 838.945 353.551C838.809 353.714 838.625 353.804 838.393 353.823C838.161 353.842 837.963 353.784 837.799 353.648C837.635 353.51 837.543 353.318 837.522 353.069L837.506 352.876ZM837.893 353.055C837.905 353.196 837.954 353.309 838.04 353.394C838.126 353.477 838.235 353.513 838.367 353.502C838.495 353.491 838.595 353.439 838.664 353.345C838.734 353.25 838.762 353.126 838.75 352.974L838.733 352.776C838.722 352.635 838.673 352.523 838.587 352.44C838.503 352.357 838.396 352.321 838.266 352.331C838.139 352.342 838.039 352.395 837.966 352.491C837.894 352.585 837.865 352.707 837.877 352.857L837.893 353.055ZM836.578 353.619L836.282 353.465L837.937 350.26L838.232 350.414L836.578 353.619Z" fill="#18AB1E"/>
</g>
<g filter="url(#filter11_d)">
<mask id="mask0" mask-type="alpha" maskUnits="userSpaceOnUse" x="747" y="204" width="111" height="101">
<rect x="759.19" y="202" width="102.302" height="90.833" rx="18.3501" transform="rotate(8.98784 759.19 202)" fill="#FF6200"/>
</mask>
<g mask="url(#mask0)">
<rect x="759.19" y="202" width="102.302" height="90.833" rx="18.3501" transform="rotate(8.98784 759.19 202)" fill="#FF6200"/>
<path d="M772.877 227.21L771.762 227.034L772.781 220.591L773.896 220.767L772.877 227.21ZM779.432 228.247L778.312 228.07L776.163 223.045L775.44 227.616L774.321 227.439L775.34 220.996L776.459 221.173L778.614 226.217L779.34 221.629L780.451 221.804L779.432 228.247ZM780.823 228.467L781.842 222.024L783.744 222.325C784.314 222.415 784.798 222.622 785.198 222.945C785.6 223.269 785.885 223.683 786.053 224.187C786.222 224.692 786.258 225.245 786.163 225.846L786.112 226.169C786.015 226.78 785.808 227.298 785.49 227.722C785.175 228.147 784.772 228.449 784.281 228.628C783.793 228.808 783.258 228.852 782.677 228.76L780.823 228.467ZM782.818 223.104L782.084 227.75L782.814 227.866C783.401 227.959 783.88 227.847 784.25 227.53C784.624 227.212 784.868 226.709 784.983 226.023L785.04 225.664C785.15 224.965 785.083 224.407 784.837 223.99C784.592 223.573 784.18 223.319 783.602 223.228L782.818 223.104ZM791.032 227.134L788.386 226.715L788.072 228.697L791.165 229.187L791.024 230.081L786.811 229.414L787.83 222.971L792.012 223.633L791.869 224.536L788.807 224.051L788.526 225.83L791.172 226.249L791.032 227.134ZM794.871 226.471L796.593 224.357L797.886 224.562L795.433 227.449L796.911 231.012L795.605 230.805L794.594 228.223L792.831 230.366L791.53 230.161L794.039 227.228L792.593 223.725L793.885 223.929L794.871 226.471Z" fill="white"/>
<path d="M709.628 247.436C707.23 247.057 699.912 250.867 693.972 250.209L690.652 271.201L847.884 296.07L851.205 275.078C843.989 273.996 831.877 282.639 823.891 281.584C816.42 280.598 807.677 262.462 802.954 261.715C798.23 260.968 797.219 266.539 791.821 265.686C786.422 264.832 780.21 252.668 773.658 251.632C767.455 250.651 757.929 260.325 749.982 259.068C743.234 258.001 738.645 252.026 735.271 251.492C731.897 250.959 727.038 255.439 721.64 254.585C716.241 253.731 714.394 248.19 709.628 247.436Z" fill="url(#paint0_linear)"/>
<path d="M695.98 250.245C701.222 251.074 706.141 246.885 709.85 247.471C715.313 248.335 716.744 253.811 722.142 254.665C727.541 255.519 730.31 250.566 734.767 251.271C737.744 251.742 744.22 258.157 750.968 259.224C757.717 260.291 767.507 250.319 773.711 251.3C779.984 252.292 786.179 264.852 791.578 265.706C796.976 266.56 798.282 260.636 803.006 261.383C807.73 262.13 816.513 280.549 823.963 281.728C831.917 282.986 842.678 273.789 850.54 275.032" stroke="url(#paint1_linear)" stroke-width="1.37626"/>
<circle cx="838.456" cy="233.812" r="9.40443" transform="rotate(8.98784 838.456 233.812)" fill="white" fill-opacity="0.2"/>
<path d="M838.352 229.213C838.791 228.592 839.751 228.744 839.977 229.47L840.503 231.162C840.593 231.45 840.819 231.676 841.107 231.765L842.799 232.291C843.525 232.516 843.677 233.477 843.056 233.916L841.61 234.939C841.364 235.113 841.219 235.398 841.223 235.7L841.246 237.471C841.256 238.231 840.389 238.673 839.78 238.218L838.36 237.159C838.118 236.979 837.803 236.929 837.517 237.026L835.839 237.595C835.119 237.839 834.432 237.152 834.676 236.432L835.244 234.754C835.341 234.468 835.291 234.153 835.11 233.911L834.051 232.491C833.596 231.882 834.037 231.016 834.797 231.025L836.568 231.047C836.87 231.051 837.155 230.906 837.329 230.66L838.352 229.213Z" fill="url(#paint2_linear)"/>
</g>
</g>
<g filter="url(#filter12_d)">
<mask id="mask1" mask-type="alpha" maskUnits="userSpaceOnUse" x="635" y="201" width="107" height="96">
<rect x="634" y="207.857" width="102.302" height="90.833" rx="18.3501" transform="rotate(-4.40487 634 207.857)" fill="#FF6200"/>
</mask>
<g mask="url(#mask1)">
<rect x="634" y="207.857" width="102.302" height="90.833" rx="18.3501" transform="rotate(-4.40487 634 207.857)" fill="#7F8DEF"/>
<path d="M655.231 227.366C655.209 227.081 655.091 226.868 654.876 226.729C654.665 226.589 654.291 226.461 653.755 226.343C653.218 226.226 652.788 226.082 652.463 225.913C651.842 225.586 651.508 225.123 651.462 224.525C651.422 224.001 651.602 223.553 652.001 223.18C652.404 222.808 652.946 222.595 653.628 222.543C654.081 222.508 654.491 222.56 654.858 222.7C655.225 222.839 655.522 223.056 655.748 223.35C655.974 223.641 656.102 223.974 656.131 224.35L655.005 224.436C654.979 224.097 654.851 223.84 654.622 223.666C654.396 223.489 654.085 223.415 653.689 223.446C653.319 223.474 653.038 223.575 652.845 223.749C652.655 223.922 652.57 224.151 652.592 224.433C652.61 224.672 652.736 224.863 652.969 225.007C653.201 225.147 653.576 225.274 654.094 225.387C654.612 225.497 655.032 225.637 655.353 225.807C655.675 225.974 655.917 226.177 656.079 226.416C656.241 226.652 656.335 226.937 656.36 227.27C656.402 227.812 656.227 228.26 655.835 228.614C655.445 228.965 654.895 229.167 654.183 229.222C653.713 229.258 653.273 229.205 652.863 229.063C652.457 228.918 652.131 228.7 651.887 228.41C651.646 228.12 651.51 227.771 651.479 227.363L652.609 227.276C652.637 227.646 652.781 227.922 653.041 228.106C653.301 228.289 653.659 228.364 654.114 228.329C654.507 228.298 654.796 228.197 654.98 228.024C655.168 227.848 655.251 227.629 655.231 227.366ZM661.819 222.918L659.791 223.075L660.221 228.667L659.1 228.753L658.669 223.161L656.659 223.316L656.589 222.405L661.748 222.007L661.819 222.918ZM668.003 224.967C668.053 225.604 667.985 226.173 667.802 226.672C667.619 227.169 667.332 227.562 666.941 227.853C666.552 228.14 666.092 228.305 665.559 228.346C665.032 228.386 664.551 228.295 664.118 228.07C663.687 227.843 663.34 227.5 663.077 227.041C662.817 226.581 662.661 226.041 662.61 225.419L662.582 225.052C662.533 224.418 662.602 223.85 662.788 223.347C662.977 222.844 663.265 222.449 663.653 222.161C664.044 221.871 664.505 221.705 665.035 221.664C665.565 221.623 666.044 221.715 666.472 221.94C666.902 222.161 667.247 222.503 667.508 222.965C667.768 223.425 667.924 223.971 667.976 224.605L668.003 224.967ZM666.847 224.715C666.792 223.994 666.612 223.452 666.309 223.089C666.008 222.726 665.608 222.564 665.107 222.602C664.619 222.64 664.251 222.861 664.004 223.267C663.759 223.669 663.661 224.22 663.709 224.921L663.738 225.296C663.793 226.01 663.974 226.552 664.281 226.921C664.591 227.29 664.993 227.455 665.487 227.417C665.987 227.378 666.357 227.158 666.596 226.756C666.837 226.354 666.93 225.787 666.873 225.054L666.847 224.715ZM674.235 225.458C674.223 226.157 674.008 226.718 673.592 227.143C673.175 227.564 672.596 227.804 671.854 227.861C671.336 227.901 670.869 227.814 670.455 227.6C670.042 227.383 669.712 227.057 669.462 226.621C669.213 226.185 669.061 225.668 669.006 225.07L668.959 224.462C668.912 223.849 668.979 223.3 669.16 222.816C669.342 222.331 669.625 221.947 670.011 221.663C670.399 221.378 670.86 221.215 671.393 221.174C672.111 221.119 672.703 221.27 673.171 221.626C673.639 221.982 673.936 222.514 674.062 223.22L672.937 223.307C672.847 222.843 672.684 222.517 672.448 222.329C672.214 222.137 671.886 222.058 671.463 222.09C670.972 222.128 670.608 222.337 670.37 222.718C670.136 223.095 670.042 223.631 670.09 224.326L670.134 224.902C670.188 225.605 670.355 226.131 670.633 226.481C670.915 226.831 671.298 226.987 671.784 226.95C672.228 226.915 672.553 226.79 672.761 226.573C672.969 226.357 673.085 226.014 673.109 225.544L674.235 225.458ZM677.131 224.538L676.454 225.377L676.61 227.405L675.48 227.492L674.979 220.988L676.109 220.901L676.344 223.952L676.91 223.131L678.638 220.706L680.004 220.601L677.81 223.668L680.644 227.094L679.304 227.197L677.131 224.538Z" fill="white"/>
<path d="M634.46 248.666C632.674 248.804 628.342 256.273 623.982 257.014L626.349 287.739L743.442 278.719L741.076 247.994C735.715 248.491 729.07 264.17 723.17 264.925C717.65 265.63 707.371 242.358 703.853 242.629C700.336 242.9 700.872 251.091 696.851 251.4C692.831 251.71 685.69 236.2 680.811 236.575C676.191 236.931 671.612 253.345 665.693 253.801C660.668 254.188 656.07 247.002 653.557 247.195C651.045 247.389 648.607 255.117 644.586 255.427C640.566 255.736 638.01 248.393 634.46 248.666Z" fill="url(#paint3_linear)"/>
<path d="M625.415 256.499C629.318 256.199 631.865 248.867 634.626 248.654C638.695 248.341 640.941 255.708 644.962 255.398C648.982 255.088 649.832 247.28 653.151 247.024C655.368 246.853 661.403 254.131 666.429 253.744C671.454 253.357 676.154 236.445 680.774 236.09C685.446 235.73 692.664 251.808 696.685 251.499C700.705 251.189 700.299 242.414 703.816 242.143C707.334 241.872 717.706 265.535 723.254 265.108C729.178 264.652 734.74 248.567 740.595 248.116" stroke="url(#paint4_linear)" stroke-width="1.37626"/>
<circle cx="718.48" cy="220.444" r="9.40443" transform="rotate(-4.40487 718.48 220.444)" fill="white" fill-opacity="0.2"/>
<path d="M717.312 215.994C717.595 215.289 718.564 215.214 718.952 215.868L719.856 217.391C720.01 217.651 720.282 217.818 720.583 217.839L722.35 217.958C723.109 218.009 723.48 218.908 722.978 219.479L721.808 220.809C721.609 221.036 721.533 221.347 721.607 221.639L722.04 223.357C722.226 224.094 721.485 224.725 720.787 224.424L719.16 223.722C718.883 223.603 718.565 223.627 718.309 223.788L716.809 224.73C716.165 225.135 715.337 224.625 715.408 223.868L715.572 222.104C715.6 221.804 715.478 221.508 715.247 221.315L713.887 220.18C713.303 219.692 713.532 218.747 714.274 218.58L716.002 218.192C716.296 218.125 716.54 217.918 716.652 217.638L717.312 215.994Z" fill="url(#paint5_linear)"/>
</g>
</g>
<g filter="url(#filter13_d)">
<mask id="mask2" mask-type="alpha" maskUnits="userSpaceOnUse" x="700" y="462" width="100" height="100">
<circle cx="749.615" cy="511.615" r="38.6046" stroke="#E6EEF5" stroke-width="22.0201"/>
</mask>
<g mask="url(#mask2)">
<path d="M791.787 557.044L749.459 511.925L797.678 477.04L805.896 488.203L807.136 519.523L791.787 557.044Z" fill="#FF6200" stroke="white" stroke-width="2.29376"/>
<path d="M749.614 511.615L722.326 463.706L749.614 456.264V511.615L725.737 559.369L714.573 552.547L749.614 511.615Z" fill="#FF6200"/>
<path d="M749.614 511.615L722.326 463.706L749.614 456.264V511.615ZM749.614 511.615L714.573 552.547L725.737 559.369L749.614 511.615Z" stroke="white" stroke-width="2.29376"/>
<path d="M749.614 511.46V457.194L778.143 464.016L795.973 482.001L749.614 511.46Z" fill="#FFB78A" stroke="white" stroke-width="2.29376"/>
<path d="M724.706 560.343L750.444 511.814C764.76 525.975 792.926 554.452 791.066 555.072C788.74 555.847 772.305 564.53 771.685 564.219C771.189 563.971 754.423 565.873 746.102 566.855L724.706 560.343Z" fill="#7F8DEF" stroke="white" stroke-width="2.29376"/>
<path d="M691.472 515.182L749.769 511.46L714.418 553.788L701.86 547.431L691.472 515.182Z" fill="#7F8DEF" stroke="white" stroke-width="2.29376"/>
<path d="M722.171 462.621L749.769 511.615L694.883 515.956L699.069 481.691L722.171 462.621Z" fill="#CBD1FF" stroke="white" stroke-width="2.29376"/>
</g>
</g>
<defs>
<filter id="filter0_d" x="617" y="0.0532227" width="273" height="180.761" filterUnits="userSpaceOnUse" color-interpolation-filters="sRGB">
<feFlood flood-opacity="0" result="BackgroundImageFix"/>
<feColorMatrix in="SourceAlpha" type="matrix" values="0 0 0 0 0 0 0 0 0 0 0 0 0 0 0 0 0 0 127 0"/>
<feOffset dy="4"/>
<feGaussianBlur stdDeviation="2"/>
<feColorMatrix type="matrix" values="0 0 0 0 0 0 0 0 0 0 0 0 0 0 0 0 0 0 0.25 0"/>
<feBlend mode="normal" in2="BackgroundImageFix" result="effect1_dropShadow"/>
<feBlend mode="normal" in="SourceGraphic" in2="effect1_dropShadow" result="shape"/>
</filter>
<filter id="filter1_d" x="260" y="537" width="26" height="26" filterUnits="userSpaceOnUse" color-interpolation-filters="sRGB">
<feFlood flood-opacity="0" result="BackgroundImageFix"/>
<feColorMatrix in="SourceAlpha" type="matrix" values="0 0 0 0 0 0 0 0 0 0 0 0 0 0 0 0 0 0 127 0"/>
<feOffset dy="4"/>
<feGaussianBlur stdDeviation="2"/>
<feColorMatrix type="matrix" values="0 0 0 0 0 0 0 0 0 0 0 0 0 0 0 0 0 0 0.25 0"/>
<feBlend mode="normal" in2="BackgroundImageFix" result="effect1_dropShadow"/>
<feBlend mode="normal" in="SourceGraphic" in2="effect1_dropShadow" result="shape"/>
</filter>
<filter id="filter2_d" x="193.94" y="500.418" width="37.8062" height="38.5728" filterUnits="userSpaceOnUse" color-interpolation-filters="sRGB">
<feFlood flood-opacity="0" result="BackgroundImageFix"/>
<feColorMatrix in="SourceAlpha" type="matrix" values="0 0 0 0 0 0 0 0 0 0 0 0 0 0 0 0 0 0 127 0"/>
<feOffset dy="4"/>
<feGaussianBlur stdDeviation="2"/>
<feColorMatrix type="matrix" values="0 0 0 0 0 0 0 0 0 0 0 0 0 0 0 0 0 0 0.25 0"/>
<feBlend mode="normal" in2="BackgroundImageFix" result="effect1_dropShadow"/>
<feBlend mode="normal" in="SourceGraphic" in2="effect1_dropShadow" result="shape"/>
</filter>
<filter id="filter3_d" x="794.338" y="612.909" width="41.5848" height="41.0246" filterUnits="userSpaceOnUse" color-interpolation-filters="sRGB">
<feFlood flood-opacity="0" result="BackgroundImageFix"/>
<feColorMatrix in="SourceAlpha" type="matrix" values="0 0 0 0 0 0 0 0 0 0 0 0 0 0 0 0 0 0 127 0"/>
<feOffset dy="4"/>
<feGaussianBlur stdDeviation="2"/>
<feColorMatrix type="matrix" values="0 0 0 0 0 0 0 0 0 0 0 0 0 0 0 0 0 0 0.25 0"/>
<feBlend mode="normal" in2="BackgroundImageFix" result="effect1_dropShadow"/>
<feBlend mode="normal" in="SourceGraphic" in2="effect1_dropShadow" result="shape"/>
</filter>
<filter id="filter4_d" x="100" y="625" width="19" height="19" filterUnits="userSpaceOnUse" color-interpolation-filters="sRGB">
<feFlood flood-opacity="0" result="BackgroundImageFix"/>
<feColorMatrix in="SourceAlpha" type="matrix" values="0 0 0 0 0 0 0 0 0 0 0 0 0 0 0 0 0 0 127 0"/>
<feOffset dy="4"/>
<feGaussianBlur stdDeviation="2"/>
<feColorMatrix type="matrix" values="0 0 0 0 0 0 0 0 0 0 0 0 0 0 0 0 0 0 0.25 0"/>
<feBlend mode="normal" in2="BackgroundImageFix" result="effect1_dropShadow"/>
<feBlend mode="normal" in="SourceGraphic" in2="effect1_dropShadow" result="shape"/>
</filter>
<filter id="filter5_d" x="143" y="134" width="15" height="15" filterUnits="userSpaceOnUse" color-interpolation-filters="sRGB">
<feFlood flood-opacity="0" result="BackgroundImageFix"/>
<feColorMatrix in="SourceAlpha" type="matrix" values="0 0 0 0 0 0 0 0 0 0 0 0 0 0 0 0 0 0 127 0"/>
<feOffset dy="4"/>
<feGaussianBlur stdDeviation="2"/>
<feColorMatrix type="matrix" values="0 0 0 0 0 0 0 0 0 0 0 0 0 0 0 0 0 0 0.25 0"/>
<feBlend mode="normal" in2="BackgroundImageFix" result="effect1_dropShadow"/>
<feBlend mode="normal" in="SourceGraphic" in2="effect1_dropShadow" result="shape"/>
</filter>
<filter id="filter6_d" x="143.373" y="374" width="28.0089" height="28.0089" filterUnits="userSpaceOnUse" color-interpolation-filters="sRGB">
<feFlood flood-opacity="0" result="BackgroundImageFix"/>
<feColorMatrix in="SourceAlpha" type="matrix" values="0 0 0 0 0 0 0 0 0 0 0 0 0 0 0 0 0 0 127 0"/>
<feOffset dy="4"/>
<feGaussianBlur stdDeviation="2"/>
<feColorMatrix type="matrix" values="0 0 0 0 0 0 0 0 0 0 0 0 0 0 0 0 0 0 0.25 0"/>
<feBlend mode="normal" in2="BackgroundImageFix" result="effect1_dropShadow"/>
<feBlend mode="normal" in="SourceGraphic" in2="effect1_dropShadow" result="shape"/>
</filter>
<filter id="filter7_d" x="0" y="79" width="28.0089" height="28.0089" filterUnits="userSpaceOnUse" color-interpolation-filters="sRGB">
<feFlood flood-opacity="0" result="BackgroundImageFix"/>
<feColorMatrix in="SourceAlpha" type="matrix" values="0 0 0 0 0 0 0 0 0 0 0 0 0 0 0 0 0 0 127 0"/>
<feOffset dy="4"/>
<feGaussianBlur stdDeviation="2"/>
<feColorMatrix type="matrix" values="0 0 0 0 0 0 0 0 0 0 0 0 0 0 0 0 0 0 0.25 0"/>
<feBlend mode="normal" in2="BackgroundImageFix" result="effect1_dropShadow"/>
<feBlend mode="normal" in="SourceGraphic" in2="effect1_dropShadow" result="shape"/>
</filter>
<filter id="filter8_d" x="216" y="99" width="659" height="449.081" filterUnits="userSpaceOnUse" color-interpolation-filters="sRGB">
<feFlood flood-opacity="0" result="BackgroundImageFix"/>
<feColorMatrix in="SourceAlpha" type="matrix" values="0 0 0 0 0 0 0 0 0 0 0 0 0 0 0 0 0 0 127 0"/>
<feOffset dy="4"/>
<feGaussianBlur stdDeviation="2"/>
<feColorMatrix type="matrix" values="0 0 0 0 0 0 0 0 0 0 0 0 0 0 0 0 0 0 0.25 0"/>
<feBlend mode="normal" in2="BackgroundImageFix" result="effect1_dropShadow"/>
<feBlend mode="normal" in="SourceGraphic" in2="effect1_dropShadow" result="shape"/>
</filter>
<filter id="filter9_d" x="655.305" y="381.373" width="225.534" height="60.7078" filterUnits="userSpaceOnUse" color-interpolation-filters="sRGB">
<feFlood flood-opacity="0" result="BackgroundImageFix"/>
<feColorMatrix in="SourceAlpha" type="matrix" values="0 0 0 0 0 0 0 0 0 0 0 0 0 0 0 0 0 0 127 0"/>
<feOffset dy="4"/>
<feGaussianBlur stdDeviation="2"/>
<feColorMatrix type="matrix" values="0 0 0 0 0 0 0 0 0 0 0 0 0 0 0 0 0 0 0.25 0"/>
<feBlend mode="normal" in2="BackgroundImageFix" result="effect1_dropShadow"/>
<feBlend mode="normal" in="SourceGraphic" in2="effect1_dropShadow" result="shape"/>
</filter>
<filter id="filter10_d" x="630.002" y="323.002" width="225.971" height="68.9861" filterUnits="userSpaceOnUse" color-interpolation-filters="sRGB">
<feFlood flood-opacity="0" result="BackgroundImageFix"/>
<feColorMatrix in="SourceAlpha" type="matrix" values="0 0 0 0 0 0 0 0 0 0 0 0 0 0 0 0 0 0 127 0"/>
<feOffset dy="4"/>
<feGaussianBlur stdDeviation="2"/>
<feColorMatrix type="matrix" values="0 0 0 0 0 0 0 0 0 0 0 0 0 0 0 0 0 0 0.25 0"/>
<feBlend mode="normal" in2="BackgroundImageFix" result="effect1_dropShadow"/>
<feBlend mode="normal" in="SourceGraphic" in2="effect1_dropShadow" result="shape"/>
</filter>
<filter id="filter11_d" x="743.864" y="204.865" width="117.507" height="107.971" filterUnits="userSpaceOnUse" color-interpolation-filters="sRGB">
<feFlood flood-opacity="0" result="BackgroundImageFix"/>
<feColorMatrix in="SourceAlpha" type="matrix" values="0 0 0 0 0 0 0 0 0 0 0 0 0 0 0 0 0 0 127 0"/>
<feOffset dy="4"/>
<feGaussianBlur stdDeviation="2"/>
<feColorMatrix type="matrix" values="0 0 0 0 0 0 0 0 0 0 0 0 0 0 0 0 0 0 0.25 0"/>
<feBlend mode="normal" in2="BackgroundImageFix" result="effect1_dropShadow"/>
<feBlend mode="normal" in="SourceGraphic" in2="effect1_dropShadow" result="shape"/>
</filter>
<filter id="filter12_d" x="631.591" y="201.591" width="113.794" height="103.24" filterUnits="userSpaceOnUse" color-interpolation-filters="sRGB">
<feFlood flood-opacity="0" result="BackgroundImageFix"/>
<feColorMatrix in="SourceAlpha" type="matrix" values="0 0 0 0 0 0 0 0 0 0 0 0 0 0 0 0 0 0 127 0"/>
<feOffset dy="4"/>
<feGaussianBlur stdDeviation="2"/>
<feColorMatrix type="matrix" values="0 0 0 0 0 0 0 0 0 0 0 0 0 0 0 0 0 0 0.25 0"/>
<feBlend mode="normal" in2="BackgroundImageFix" result="effect1_dropShadow"/>
<feBlend mode="normal" in="SourceGraphic" in2="effect1_dropShadow" result="shape"/>
</filter>
<filter id="filter13_d" x="696" y="462" width="107.229" height="107.229" filterUnits="userSpaceOnUse" color-interpolation-filters="sRGB">
<feFlood flood-opacity="0" result="BackgroundImageFix"/>
<feColorMatrix in="SourceAlpha" type="matrix" values="0 0 0 0 0 0 0 0 0 0 0 0 0 0 0 0 0 0 127 0"/>
<feOffset dy="4"/>
<feGaussianBlur stdDeviation="2"/>
<feColorMatrix type="matrix" values="0 0 0 0 0 0 0 0 0 0 0 0 0 0 0 0 0 0 0.25 0"/>
<feBlend mode="normal" in2="BackgroundImageFix" result="effect1_dropShadow"/>
<feBlend mode="normal" in="SourceGraphic" in2="effect1_dropShadow" result="shape"/>
</filter>
<linearGradient id="paint0_linear" x1="774.314" y1="251.736" x2="769.268" y2="283.635" gradientUnits="userSpaceOnUse">
<stop stop-color="white" stop-opacity="0.25"/>
<stop offset="1" stop-color="white" stop-opacity="0"/>
</linearGradient>
<linearGradient id="paint1_linear" x1="759.243" y1="251.969" x2="808.367" y2="316.642" gradientUnits="userSpaceOnUse">
<stop stop-color="white"/>
<stop offset="1" stop-color="white" stop-opacity="0"/>
</linearGradient>
<linearGradient id="paint2_linear" x1="836.026" y1="227.158" x2="841.066" y2="243.746" gradientUnits="userSpaceOnUse">
<stop stop-color="white"/>
<stop offset="1" stop-color="white" stop-opacity="0"/>
</linearGradient>
<linearGradient id="paint3_linear" x1="681.299" y1="236.538" x2="684.896" y2="283.229" gradientUnits="userSpaceOnUse">
<stop stop-color="white" stop-opacity="0.25"/>
<stop offset="1" stop-color="white" stop-opacity="0"/>
</linearGradient>
<linearGradient id="paint4_linear" x1="670.665" y1="241.117" x2="740.028" y2="268.576" gradientUnits="userSpaceOnUse">
<stop stop-color="white"/>
<stop offset="1" stop-color="white" stop-opacity="0"/>
</linearGradient>
<linearGradient id="paint5_linear" x1="714.573" y1="214.533" x2="723.318" y2="229.503" gradientUnits="userSpaceOnUse">
<stop stop-color="white"/>
<stop offset="1" stop-color="white" stop-opacity="0"/>
</linearGradient>
</defs>
</svg>
